<svg xmlns="http://www.w3.org/2000/svg" width="1600" height="500" viewBox="0 0 1600 500">
<defs>
  <linearGradient id="gradStreak1" x1="0" y1="0" x2="1" y2="0">
    <stop offset="0" stop-color="#8FA8FF" stop-opacity="0"/>
    <stop offset="0.5" stop-color="#C9E8FF" stop-opacity="0.9"/>
    <stop offset="1" stop-color="#FFD9C4" stop-opacity="0"/>
  </linearGradient>
  <linearGradient id="gradStreak2" x1="0" y1="0" x2="1" y2="0">
    <stop offset="0" stop-color="#E356C8" stop-opacity="0"/>
    <stop offset="0.5" stop-color="#FFB8E0" stop-opacity="0.7"/>
    <stop offset="1" stop-color="#8FA8FF" stop-opacity="0"/>
  </linearGradient>

<radialGradient id="pg11_0" cx="0.44" cy="0.45" r="0.75"><stop offset="0" stop-color="rgb(255,219,191)"/><stop offset="1" stop-color="rgb(156,93,143)"/></radialGradient><radialGradient id="pg11_1" cx="0.64" cy="0.62" r="0.75"><stop offset="0" stop-color="rgb(255,244,230)"/><stop offset="1" stop-color="rgb(221,134,149)"/></radialGradient><radialGradient id="pg11_2" cx="0.51" cy="0.51" r="0.75"><stop offset="0" stop-color="rgb(255,227,204)"/><stop offset="1" stop-color="rgb(177,106,145)"/></radialGradient><radialGradient id="pg11_3" cx="0.44" cy="0.45" r="0.75"><stop offset="0" stop-color="rgb(255,219,191)"/><stop offset="1" stop-color="rgb(156,93,143)"/></radialGradient><radialGradient id="pg11_4" cx="0.66" cy="0.65" r="0.75"><stop offset="0" stop-color="rgb(255,247,235)"/><stop offset="1" stop-color="rgb(230,140,150)"/></radialGradient><radialGradient id="pg11_5" cx="0.57" cy="0.56" r="0.75"><stop offset="0" stop-color="rgb(255,234,216)"/><stop offset="1" stop-color="rgb(197,119,147)"/></radialGradient><radialGradient id="pg11_6" cx="0.56" cy="0.55" r="0.75"><stop offset="0" stop-color="rgb(255,233,214)"/><stop offset="1" stop-color="rgb(194,117,147)"/></radialGradient><radialGradient id="pg11_7" cx="0.50" cy="0.50" r="0.75"><stop offset="0" stop-color="rgb(255,226,202)"/><stop offset="1" stop-color="rgb(175,105,145)"/></radialGradient><radialGradient id="pg11_8" cx="0.46" cy="0.46" r="0.75"><stop offset="0" stop-color="rgb(255,220,194)"/><stop offset="1" stop-color="rgb(160,95,144)"/></radialGradient><radialGradient id="pg11_9" cx="0.51" cy="0.51" r="0.75"><stop offset="0" stop-color="rgb(255,227,204)"/><stop offset="1" stop-color="rgb(178,107,145)"/></radialGradient><radialGradient id="pg11_10" cx="0.48" cy="0.48" r="0.75"><stop offset="0" stop-color="rgb(255,223,198)"/><stop offset="1" stop-color="rgb(168,100,144)"/></radialGradient><radialGradient id="pg11_11" cx="0.37" cy="0.38" r="0.75"><stop offset="0" stop-color="rgb(255,210,177)"/><stop offset="1" stop-color="rgb(132,78,141)"/></radialGradient><radialGradient id="pg11_12" cx="0.48" cy="0.48" r="0.75"><stop offset="0" stop-color="rgb(255,224,199)"/><stop offset="1" stop-color="rgb(169,101,144)"/></radialGradient><radialGradient id="pg11_13" cx="0.51" cy="0.51" r="0.75"><stop offset="0" stop-color="rgb(255,228,205)"/><stop offset="1" stop-color="rgb(180,108,145)"/></radialGradient><radialGradient id="pg11_14" cx="0.54" cy="0.54" r="0.75"><stop offset="0" stop-color="rgb(255,231,211)"/><stop offset="1" stop-color="rgb(189,114,146)"/></radialGradient>
<radialGradient id="pg22_0" cx="0.45" cy="0.45" r="0.75"><stop offset="0" stop-color="rgb(255,219,192)"/><stop offset="1" stop-color="rgb(158,94,143)"/></radialGradient><radialGradient id="pg22_1" cx="0.59" cy="0.58" r="0.75"><stop offset="0" stop-color="rgb(255,238,221)"/><stop offset="1" stop-color="rgb(206,125,148)"/></radialGradient><radialGradient id="pg22_2" cx="0.50" cy="0.50" r="0.75"><stop offset="0" stop-color="rgb(255,226,203)"/><stop offset="1" stop-color="rgb(175,105,145)"/></radialGradient><radialGradient id="pg22_3" cx="0.34" cy="0.35" r="0.75"><stop offset="0" stop-color="rgb(255,205,170)"/><stop offset="1" stop-color="rgb(120,70,140)"/></radialGradient><radialGradient id="pg22_4" cx="0.65" cy="0.63" r="0.75"><stop offset="0" stop-color="rgb(255,245,232)"/><stop offset="1" stop-color="rgb(225,137,150)"/></radialGradient><radialGradient id="pg22_5" cx="0.46" cy="0.46" r="0.75"><stop offset="0" stop-color="rgb(255,220,194)"/><stop offset="1" stop-color="rgb(160,95,144)"/></radialGradient><radialGradient id="pg22_6" cx="0.48" cy="0.48" r="0.75"><stop offset="0" stop-color="rgb(255,223,198)"/><stop offset="1" stop-color="rgb(167,100,144)"/></radialGradient><radialGradient id="pg22_7" cx="0.41" cy="0.41" r="0.75"><stop offset="0" stop-color="rgb(255,214,184)"/><stop offset="1" stop-color="rgb(143,85,142)"/></radialGradient><radialGradient id="pg22_8" cx="0.34" cy="0.35" r="0.75"><stop offset="0" stop-color="rgb(255,205,170)"/><stop offset="1" stop-color="rgb(120,70,140)"/></radialGradient><radialGradient id="pg22_9" cx="0.50" cy="0.50" r="0.75"><stop offset="0" stop-color="rgb(255,226,203)"/><stop offset="1" stop-color="rgb(176,106,145)"/></radialGradient><radialGradient id="pg22_10" cx="0.50" cy="0.50" r="0.75"><stop offset="0" stop-color="rgb(255,226,202)"/><stop offset="1" stop-color="rgb(174,104,145)"/></radialGradient><radialGradient id="pg22_11" cx="0.47" cy="0.47" r="0.75"><stop offset="0" stop-color="rgb(255,221,196)"/><stop offset="1" stop-color="rgb(163,97,144)"/></radialGradient><radialGradient id="pg22_12" cx="0.52" cy="0.51" r="0.75"><stop offset="0" stop-color="rgb(255,228,206)"/><stop offset="1" stop-color="rgb(180,108,145)"/></radialGradient>
<radialGradient id="pg33_0" cx="0.47" cy="0.48" r="0.75"><stop offset="0" stop-color="rgb(217,228,255)"/><stop offset="1" stop-color="rgb(115,127,199)"/></radialGradient><radialGradient id="pg33_1" cx="0.66" cy="0.65" r="0.75"><stop offset="0" stop-color="rgb(240,245,255)"/><stop offset="1" stop-color="rgb(150,165,225)"/></radialGradient><radialGradient id="pg33_2" cx="0.66" cy="0.65" r="0.75"><stop offset="0" stop-color="rgb(240,245,255)"/><stop offset="1" stop-color="rgb(150,165,225)"/></radialGradient><radialGradient id="pg33_3" cx="0.46" cy="0.47" r="0.75"><stop offset="0" stop-color="rgb(216,227,255)"/><stop offset="1" stop-color="rgb(113,125,197)"/></radialGradient><radialGradient id="pg33_4" cx="0.54" cy="0.53" r="0.75"><stop offset="0" stop-color="rgb(225,233,255)"/><stop offset="1" stop-color="rgb(127,140,208)"/></radialGradient><radialGradient id="pg33_5" cx="0.43" cy="0.44" r="0.75"><stop offset="0" stop-color="rgb(211,224,255)"/><stop offset="1" stop-color="rgb(107,118,193)"/></radialGradient><radialGradient id="pg33_6" cx="0.43" cy="0.43" r="0.75"><stop offset="0" stop-color="rgb(211,223,255)"/><stop offset="1" stop-color="rgb(106,117,192)"/></radialGradient><radialGradient id="pg33_7" cx="0.63" cy="0.62" r="0.75"><stop offset="0" stop-color="rgb(236,242,255)"/><stop offset="1" stop-color="rgb(144,158,220)"/></radialGradient><radialGradient id="pg33_8" cx="0.50" cy="0.50" r="0.75"><stop offset="0" stop-color="rgb(220,230,255)"/><stop offset="1" stop-color="rgb(121,133,203)"/></radialGradient><radialGradient id="pg33_9" cx="0.48" cy="0.49" r="0.75"><stop offset="0" stop-color="rgb(218,229,255)"/><stop offset="1" stop-color="rgb(117,129,200)"/></radialGradient><radialGradient id="pg33_10" cx="0.34" cy="0.35" r="0.75"><stop offset="0" stop-color="rgb(200,215,255)"/><stop offset="1" stop-color="rgb(90,100,180)"/></radialGradient><radialGradient id="pg33_11" cx="0.54" cy="0.54" r="0.75"><stop offset="0" stop-color="rgb(225,234,255)"/><stop offset="1" stop-color="rgb(127,140,208)"/></radialGradient><radialGradient id="pg33_12" cx="0.55" cy="0.54" r="0.75"><stop offset="0" stop-color="rgb(226,234,255)"/><stop offset="1" stop-color="rgb(129,142,209)"/></radialGradient><radialGradient id="pg33_13" cx="0.49" cy="0.49" r="0.75"><stop offset="0" stop-color="rgb(219,229,255)"/><stop offset="1" stop-color="rgb(118,130,201)"/></radialGradient><radialGradient id="pg33_14" cx="0.47" cy="0.48" r="0.75"><stop offset="0" stop-color="rgb(217,228,255)"/><stop offset="1" stop-color="rgb(115,127,199)"/></radialGradient><radialGradient id="pg33_15" cx="0.49" cy="0.49" r="0.75"><stop offset="0" stop-color="rgb(218,229,255)"/><stop offset="1" stop-color="rgb(117,130,201)"/></radialGradient>
<radialGradient id="pg44_0" cx="0.63" cy="0.62" r="0.75"><stop offset="0" stop-color="rgb(255,243,229)"/><stop offset="1" stop-color="rgb(220,134,149)"/></radialGradient><radialGradient id="pg44_1" cx="0.52" cy="0.52" r="0.75"><stop offset="0" stop-color="rgb(255,228,206)"/><stop offset="1" stop-color="rgb(181,109,146)"/></radialGradient><radialGradient id="pg44_2" cx="0.51" cy="0.51" r="0.75"><stop offset="0" stop-color="rgb(255,227,205)"/><stop offset="1" stop-color="rgb(179,107,145)"/></radialGradient><radialGradient id="pg44_3" cx="0.53" cy="0.53" r="0.75"><stop offset="0" stop-color="rgb(255,230,209)"/><stop offset="1" stop-color="rgb(186,112,146)"/></radialGradient><radialGradient id="pg44_4" cx="0.65" cy="0.64" r="0.75"><stop offset="0" stop-color="rgb(255,246,233)"/><stop offset="1" stop-color="rgb(227,138,150)"/></radialGradient><radialGradient id="pg44_5" cx="0.51" cy="0.51" r="0.75"><stop offset="0" stop-color="rgb(255,228,205)"/><stop offset="1" stop-color="rgb(180,108,145)"/></radialGradient><radialGradient id="pg44_6" cx="0.42" cy="0.43" r="0.75"><stop offset="0" stop-color="rgb(255,216,187)"/><stop offset="1" stop-color="rgb(149,88,143)"/></radialGradient><radialGradient id="pg44_7" cx="0.49" cy="0.49" r="0.75"><stop offset="0" stop-color="rgb(255,224,200)"/><stop offset="1" stop-color="rgb(170,102,145)"/></radialGradient><radialGradient id="pg44_8" cx="0.50" cy="0.50" r="0.75"><stop offset="0" stop-color="rgb(255,226,202)"/><stop offset="1" stop-color="rgb(174,105,145)"/></radialGradient><radialGradient id="pg44_9" cx="0.42" cy="0.42" r="0.75"><stop offset="0" stop-color="rgb(255,215,186)"/><stop offset="1" stop-color="rgb(147,87,142)"/></radialGradient><radialGradient id="pg44_10" cx="0.36" cy="0.37" r="0.75"><stop offset="0" stop-color="rgb(255,208,175)"/><stop offset="1" stop-color="rgb(128,75,141)"/></radialGradient><radialGradient id="pg44_11" cx="0.34" cy="0.35" r="0.75"><stop offset="0" stop-color="rgb(255,205,170)"/><stop offset="1" stop-color="rgb(120,70,140)"/></radialGradient><radialGradient id="pg44_12" cx="0.48" cy="0.48" r="0.75"><stop offset="0" stop-color="rgb(255,223,198)"/><stop offset="1" stop-color="rgb(167,100,144)"/></radialGradient><radialGradient id="pg44_13" cx="0.46" cy="0.47" r="0.75"><stop offset="0" stop-color="rgb(255,221,195)"/><stop offset="1" stop-color="rgb(162,97,144)"/></radialGradient><radialGradient id="pg44_14" cx="0.51" cy="0.51" r="0.75"><stop offset="0" stop-color="rgb(255,227,204)"/><stop offset="1" stop-color="rgb(178,107,145)"/></radialGradient>
<radialGradient id="pg55_0" cx="0.48" cy="0.48" r="0.75"><stop offset="0" stop-color="rgb(217,228,255)"/><stop offset="1" stop-color="rgb(116,128,199)"/></radialGradient><radialGradient id="pg55_1" cx="0.50" cy="0.50" r="0.75"><stop offset="0" stop-color="rgb(220,230,255)"/><stop offset="1" stop-color="rgb(120,132,202)"/></radialGradient><radialGradient id="pg55_2" cx="0.34" cy="0.35" r="0.75"><stop offset="0" stop-color="rgb(200,215,255)"/><stop offset="1" stop-color="rgb(90,100,180)"/></radialGradient><radialGradient id="pg55_3" cx="0.47" cy="0.48" r="0.75"><stop offset="0" stop-color="rgb(217,228,255)"/><stop offset="1" stop-color="rgb(115,127,199)"/></radialGradient><radialGradient id="pg55_4" cx="0.55" cy="0.54" r="0.75"><stop offset="0" stop-color="rgb(226,234,255)"/><stop offset="1" stop-color="rgb(129,142,209)"/></radialGradient><radialGradient id="pg55_5" cx="0.36" cy="0.37" r="0.75"><stop offset="0" stop-color="rgb(203,217,255)"/><stop offset="1" stop-color="rgb(94,104,183)"/></radialGradient><radialGradient id="pg55_6" cx="0.42" cy="0.43" r="0.75"><stop offset="0" stop-color="rgb(211,223,255)"/><stop offset="1" stop-color="rgb(106,117,192)"/></radialGradient><radialGradient id="pg55_7" cx="0.42" cy="0.43" r="0.75"><stop offset="0" stop-color="rgb(210,223,255)"/><stop offset="1" stop-color="rgb(106,117,192)"/></radialGradient><radialGradient id="pg55_8" cx="0.50" cy="0.50" r="0.75"><stop offset="0" stop-color="rgb(220,230,255)"/><stop offset="1" stop-color="rgb(121,133,203)"/></radialGradient><radialGradient id="pg55_9" cx="0.52" cy="0.52" r="0.75"><stop offset="0" stop-color="rgb(223,232,255)"/><stop offset="1" stop-color="rgb(124,137,205)"/></radialGradient><radialGradient id="pg55_10" cx="0.54" cy="0.53" r="0.75"><stop offset="0" stop-color="rgb(225,234,255)"/><stop offset="1" stop-color="rgb(127,140,208)"/></radialGradient><radialGradient id="pg55_11" cx="0.48" cy="0.48" r="0.75"><stop offset="0" stop-color="rgb(218,228,255)"/><stop offset="1" stop-color="rgb(116,128,200)"/></radialGradient>
<radialGradient id="pg66_0" cx="0.50" cy="0.50" r="0.75"><stop offset="0" stop-color="rgb(219,230,255)"/><stop offset="1" stop-color="rgb(119,132,202)"/></radialGradient><radialGradient id="pg66_1" cx="0.46" cy="0.47" r="0.75"><stop offset="0" stop-color="rgb(216,227,255)"/><stop offset="1" stop-color="rgb(113,125,197)"/></radialGradient><radialGradient id="pg66_2" cx="0.34" cy="0.35" r="0.75"><stop offset="0" stop-color="rgb(200,215,255)"/><stop offset="1" stop-color="rgb(90,100,180)"/></radialGradient><radialGradient id="pg66_3" cx="0.43" cy="0.44" r="0.75"><stop offset="0" stop-color="rgb(211,224,255)"/><stop offset="1" stop-color="rgb(107,119,193)"/></radialGradient><radialGradient id="pg66_4" cx="0.58" cy="0.57" r="0.75"><stop offset="0" stop-color="rgb(230,237,255)"/><stop offset="1" stop-color="rgb(135,149,214)"/></radialGradient><radialGradient id="pg66_5" cx="0.58" cy="0.57" r="0.75"><stop offset="0" stop-color="rgb(229,237,255)"/><stop offset="1" stop-color="rgb(134,148,213)"/></radialGradient><radialGradient id="pg66_6" cx="0.49" cy="0.49" r="0.75"><stop offset="0" stop-color="rgb(218,229,255)"/><stop offset="1" stop-color="rgb(118,130,201)"/></radialGradient><radialGradient id="pg66_7" cx="0.50" cy="0.50" r="0.75"><stop offset="0" stop-color="rgb(220,230,255)"/><stop offset="1" stop-color="rgb(120,132,202)"/></radialGradient><radialGradient id="pg66_8" cx="0.45" cy="0.45" r="0.75"><stop offset="0" stop-color="rgb(214,225,255)"/><stop offset="1" stop-color="rgb(111,123,196)"/></radialGradient><radialGradient id="pg66_9" cx="0.49" cy="0.49" r="0.75"><stop offset="0" stop-color="rgb(218,229,255)"/><stop offset="1" stop-color="rgb(117,130,201)"/></radialGradient><radialGradient id="pg66_10" cx="0.55" cy="0.54" r="0.75"><stop offset="0" stop-color="rgb(226,234,255)"/><stop offset="1" stop-color="rgb(128,142,209)"/></radialGradient><radialGradient id="pg66_11" cx="0.51" cy="0.51" r="0.75"><stop offset="0" stop-color="rgb(222,231,255)"/><stop offset="1" stop-color="rgb(122,135,204)"/></radialGradient>
</defs>

<path d="M100,60 Q400,111 700,180" stroke="url(#gradStreak1)" stroke-width="3" fill="none" stroke-linecap="round" opacity="0.8"/>
<path d="M250,20 Q575,74 900,140" stroke="url(#gradStreak2)" stroke-width="2" fill="none" stroke-linecap="round" opacity="0.8"/>
<path d="M500,10 Q800,52 1100,110" stroke="url(#gradStreak1)" stroke-width="2.5" fill="none" stroke-linecap="round" opacity="0.8"/>
<path d="M900,30 Q1200,89 1500,160" stroke="url(#gradStreak2)" stroke-width="2" fill="none" stroke-linecap="round" opacity="0.8"/>
<path d="M50,180 Q275,216 500,260" stroke="url(#gradStreak1)" stroke-width="1.5" fill="none" stroke-linecap="round" opacity="0.8"/>
<path d="M1100,20 Q1340,49 1580,90" stroke="url(#gradStreak1)" stroke-width="2" fill="none" stroke-linecap="round" opacity="0.8"/>
<path d="M1250,60 Q1420,115 1590,180" stroke="url(#gradStreak2)" stroke-width="1.8" fill="none" stroke-linecap="round" opacity="0.8"/>
<path d="M650,5 Q715,20 780,60" stroke="url(#gradStreak1)" stroke-width="4" fill="none" stroke-linecap="round" opacity="0.8"/>
<g><circle cx="411" cy="381" r="40" fill="url(#pg11_0)" opacity="0.94"/><circle cx="141" cy="436" r="27" fill="url(#pg11_1)" opacity="0.94"/><circle cx="326" cy="397" r="45" fill="url(#pg11_2)" opacity="0.94"/><circle cx="328" cy="441" r="33" fill="url(#pg11_3)" opacity="0.94"/><circle cx="130" cy="407" r="36" fill="url(#pg11_4)" opacity="0.94"/><circle cx="249" cy="409" r="42" fill="url(#pg11_5)" opacity="0.94"/><circle cx="293" cy="384" r="42" fill="url(#pg11_6)" opacity="0.94"/><circle cx="303" cy="418" r="34" fill="url(#pg11_7)" opacity="0.94"/><circle cx="376" cy="397" r="47" fill="url(#pg11_8)" opacity="0.94"/><circle cx="252" cy="449" r="32" fill="url(#pg11_9)" opacity="0.94"/><circle cx="304" cy="433" r="31" fill="url(#pg11_10)" opacity="0.94"/><circle cx="401" cy="439" r="36" fill="url(#pg11_11)" opacity="0.94"/><circle cx="304" cy="429" r="59" fill="url(#pg11_12)" opacity="0.94"/><circle cx="279" cy="424" r="69" fill="url(#pg11_13)" opacity="0.94"/><circle cx="260" cy="419" r="60" fill="url(#pg11_14)" opacity="0.94"/></g>
<g><circle cx="756" cy="439" r="50" fill="url(#pg22_0)" opacity="0.94"/><circle cx="703" cy="341" r="60" fill="url(#pg22_1)" opacity="0.94"/><circle cx="752" cy="392" r="54" fill="url(#pg22_2)" opacity="0.94"/><circle cx="996" cy="420" r="33" fill="url(#pg22_3)" opacity="0.94"/><circle cx="581" cy="377" r="46" fill="url(#pg22_4)" opacity="0.94"/><circle cx="847" cy="368" r="36" fill="url(#pg22_5)" opacity="0.94"/><circle cx="743" cy="422" r="45" fill="url(#pg22_6)" opacity="0.94"/><circle cx="840" cy="419" r="61" fill="url(#pg22_7)" opacity="0.94"/><circle cx="998" cy="387" r="30" fill="url(#pg22_8)" opacity="0.94"/><circle cx="720" cy="413" r="47" fill="url(#pg22_9)" opacity="0.94"/><circle cx="738" cy="406" r="102" fill="url(#pg22_10)" opacity="0.94"/><circle cx="800" cy="392" r="84" fill="url(#pg22_11)" opacity="0.94"/><circle cx="725" cy="398" r="88" fill="url(#pg22_12)" opacity="0.94"/></g>
<g><circle cx="1235" cy="443" r="54" fill="url(#pg33_0)" opacity="0.94"/><circle cx="1055" cy="442" r="33" fill="url(#pg33_1)" opacity="0.94"/><circle cx="1032" cy="425" r="38" fill="url(#pg33_2)" opacity="0.94"/><circle cx="1262" cy="430" r="48" fill="url(#pg33_3)" opacity="0.94"/><circle cx="1182" cy="436" r="48" fill="url(#pg33_4)" opacity="0.94"/><circle cx="1276" cy="443" r="42" fill="url(#pg33_5)" opacity="0.94"/><circle cx="1327" cy="410" r="43" fill="url(#pg33_6)" opacity="0.94"/><circle cx="1154" cy="393" r="29" fill="url(#pg33_7)" opacity="0.94"/><circle cx="1161" cy="474" r="29" fill="url(#pg33_8)" opacity="0.94"/><circle cx="1249" cy="425" r="54" fill="url(#pg33_9)" opacity="0.94"/><circle cx="1414" cy="433" r="22" fill="url(#pg33_10)" opacity="0.94"/><circle cx="1145" cy="461" r="43" fill="url(#pg33_11)" opacity="0.94"/><circle cx="1176" cy="434" r="39" fill="url(#pg33_12)" opacity="0.94"/><circle cx="1233" cy="434" r="64" fill="url(#pg33_13)" opacity="0.94"/><circle cx="1235" cy="442" r="63" fill="url(#pg33_14)" opacity="0.94"/><circle cx="1230" cy="437" r="75" fill="url(#pg33_15)" opacity="0.94"/></g>
<g><circle cx="427" cy="461" r="21" fill="url(#pg44_0)" opacity="0.94"/><circle cx="498" cy="471" r="27" fill="url(#pg44_1)" opacity="0.94"/><circle cx="513" cy="464" r="41" fill="url(#pg44_2)" opacity="0.94"/><circle cx="508" cy="456" r="36" fill="url(#pg44_3)" opacity="0.94"/><circle cx="431" cy="447" r="29" fill="url(#pg44_4)" opacity="0.94"/><circle cx="497" cy="474" r="28" fill="url(#pg44_5)" opacity="0.94"/><circle cx="554" cy="481" r="32" fill="url(#pg44_6)" opacity="0.94"/><circle cx="516" cy="475" r="42" fill="url(#pg44_7)" opacity="0.94"/><circle cx="533" cy="457" r="30" fill="url(#pg44_8)" opacity="0.94"/><circle cx="567" cy="475" r="25" fill="url(#pg44_9)" opacity="0.94"/><circle cx="590" cy="488" r="31" fill="url(#pg44_10)" opacity="0.94"/><circle cx="656" cy="477" r="26" fill="url(#pg44_11)" opacity="0.94"/><circle cx="533" cy="468" r="54" fill="url(#pg44_12)" opacity="0.94"/><circle cx="541" cy="469" r="48" fill="url(#pg44_13)" opacity="0.94"/><circle cx="518" cy="462" r="56" fill="url(#pg44_14)" opacity="0.94"/></g>
<g><circle cx="1000" cy="460" r="50" fill="url(#pg55_0)" opacity="0.94"/><circle cx="978" cy="462" r="31" fill="url(#pg55_1)" opacity="0.94"/><circle cx="1105" cy="484" r="34" fill="url(#pg55_2)" opacity="0.94"/><circle cx="1022" cy="446" r="32" fill="url(#pg55_3)" opacity="0.94"/><circle cx="943" cy="460" r="47" fill="url(#pg55_4)" opacity="0.94"/><circle cx="1098" cy="458" r="21" fill="url(#pg55_5)" opacity="0.94"/><circle cx="974" cy="509" r="26" fill="url(#pg55_6)" opacity="0.94"/><circle cx="1041" cy="462" r="28" fill="url(#pg55_7)" opacity="0.94"/><circle cx="975" cy="462" r="42" fill="url(#pg55_8)" opacity="0.94"/><circle cx="975" cy="452" r="50" fill="url(#pg55_9)" opacity="0.94"/><circle cx="957" cy="454" r="46" fill="url(#pg55_10)" opacity="0.94"/><circle cx="1002" cy="456" r="52" fill="url(#pg55_11)" opacity="0.94"/></g>
<g><circle cx="84" cy="495" r="25" fill="url(#pg66_0)" opacity="0.94"/><circle cx="99" cy="499" r="24" fill="url(#pg66_1)" opacity="0.94"/><circle cx="221" cy="479" r="27" fill="url(#pg66_2)" opacity="0.94"/><circle cx="153" cy="476" r="34" fill="url(#pg66_3)" opacity="0.94"/><circle cx="114" cy="434" r="28" fill="url(#pg66_4)" opacity="0.94"/><circle cx="59" cy="475" r="27" fill="url(#pg66_5)" opacity="0.94"/><circle cx="138" cy="460" r="29" fill="url(#pg66_6)" opacity="0.94"/><circle cx="131" cy="460" r="22" fill="url(#pg66_7)" opacity="0.94"/><circle cx="142" cy="475" r="30" fill="url(#pg66_8)" opacity="0.94"/><circle cx="139" cy="460" r="52" fill="url(#pg66_9)" opacity="0.94"/><circle cx="113" cy="450" r="49" fill="url(#pg66_10)" opacity="0.94"/><circle cx="120" cy="461" r="43" fill="url(#pg66_11)" opacity="0.94"/></g>
</svg>