<svg xmlns="http://www.w3.org/2000/svg" width="1600" height="500" viewBox="0 0 1600 500">
<defs>
  <linearGradient id="gradCumulusWarm" x1="0" y1="0" x2="0" y2="1">
    <stop offset="0" stop-color="#FFEFE0"/>
    <stop offset="0.4" stop-color="#FFC9A8"/>
    <stop offset="0.75" stop-color="#E88AB0"/>
    <stop offset="1" stop-color="#9D5CE0"/>
  </linearGradient>
  <linearGradient id="gradCumulusCool" x1="0" y1="0" x2="0" y2="1">
    <stop offset="0" stop-color="#EAF0FF"/>
    <stop offset="0.5" stop-color="#B8C8FF"/>
    <stop offset="1" stop-color="#7B8FE8"/>
  </linearGradient>
  <linearGradient id="gradStreak1" x1="0" y1="0" x2="1" y2="0">
    <stop offset="0" stop-color="#8FA8FF" stop-opacity="0"/>
    <stop offset="0.5" stop-color="#C9E8FF" stop-opacity="0.9"/>
    <stop offset="1" stop-color="#FFD9C4" stop-opacity="0"/>
  </linearGradient>
  <linearGradient id="gradStreak2" x1="0" y1="0" x2="1" y2="0">
    <stop offset="0" stop-color="#E356C8" stop-opacity="0"/>
    <stop offset="0.5" stop-color="#FFB8E0" stop-opacity="0.7"/>
    <stop offset="1" stop-color="#8FA8FF" stop-opacity="0"/>
  </linearGradient>
</defs>

<path d="M100,60 Q400,111 700,180" stroke="url(#gradStreak1)" stroke-width="3" fill="none" stroke-linecap="round" opacity="0.8"/>
<path d="M250,20 Q575,74 900,140" stroke="url(#gradStreak2)" stroke-width="2" fill="none" stroke-linecap="round" opacity="0.8"/>
<path d="M500,10 Q800,52 1100,110" stroke="url(#gradStreak1)" stroke-width="2.5" fill="none" stroke-linecap="round" opacity="0.8"/>
<path d="M900,30 Q1200,89 1500,160" stroke="url(#gradStreak2)" stroke-width="2" fill="none" stroke-linecap="round" opacity="0.8"/>
<path d="M50,180 Q275,216 500,260" stroke="url(#gradStreak1)" stroke-width="1.5" fill="none" stroke-linecap="round" opacity="0.8"/>
<path d="M1100,20 Q1340,49 1580,90" stroke="url(#gradStreak1)" stroke-width="2" fill="none" stroke-linecap="round" opacity="0.8"/>
<path d="M1250,60 Q1420,115 1590,180" stroke="url(#gradStreak2)" stroke-width="1.8" fill="none" stroke-linecap="round" opacity="0.8"/>
<path d="M650,5 Q715,20 780,60" stroke="url(#gradStreak1)" stroke-width="4" fill="none" stroke-linecap="round" opacity="0.8"/>
<g fill="url(#gradCumulusWarm)"><ellipse cx="300" cy="420" rx="117" ry="43"/><ellipse cx="200" cy="429" rx="70" ry="33"/><ellipse cx="400" cy="427" rx="73" ry="34"/><ellipse cx="249" cy="399" rx="58" ry="31"/><ellipse cx="355" cy="397" rx="61" ry="31"/><ellipse cx="300" cy="385" rx="76" ry="33"/><ellipse cx="273" cy="438" rx="47" ry="23"/><ellipse cx="333" cy="439" rx="49" ry="23"/></g>
<g fill="url(#gradCumulusWarm)"><ellipse cx="750" cy="400" rx="144" ry="53"/><ellipse cx="627" cy="412" rx="86" ry="40"/><ellipse cx="873" cy="409" rx="89" ry="42"/><ellipse cx="687" cy="374" rx="72" ry="38"/><ellipse cx="817" cy="371" rx="75" ry="38"/><ellipse cx="750" cy="357" rx="94" ry="40"/><ellipse cx="716" cy="422" rx="58" ry="29"/><ellipse cx="790" cy="423" rx="60" ry="29"/></g>
<g fill="url(#gradCumulusCool)"><ellipse cx="1200" cy="430" rx="108" ry="40"/><ellipse cx="1108" cy="439" rx="65" ry="30"/><ellipse cx="1292" cy="436" rx="67" ry="32"/><ellipse cx="1153" cy="411" rx="54" ry="29"/><ellipse cx="1250" cy="408" rx="56" ry="29"/><ellipse cx="1200" cy="398" rx="70" ry="30"/><ellipse cx="1175" cy="446" rx="43" ry="22"/><ellipse cx="1230" cy="447" rx="45" ry="22"/></g>
<g fill="url(#gradCumulusWarm)"><ellipse cx="500" cy="460" rx="81" ry="30"/><ellipse cx="431" cy="466" rx="49" ry="23"/><ellipse cx="569" cy="465" rx="50" ry="24"/><ellipse cx="465" cy="445" rx="40" ry="22"/><ellipse cx="538" cy="444" rx="42" ry="22"/><ellipse cx="500" cy="436" rx="53" ry="23"/><ellipse cx="481" cy="472" rx="32" ry="16"/><ellipse cx="523" cy="473" rx="34" ry="16"/></g>
<g fill="url(#gradCumulusCool)"><ellipse cx="950" cy="460" rx="90" ry="33"/><ellipse cx="873" cy="467" rx="54" ry="25"/><ellipse cx="1027" cy="465" rx="56" ry="26"/><ellipse cx="911" cy="444" rx="45" ry="24"/><ellipse cx="992" cy="442" rx="47" ry="24"/><ellipse cx="950" cy="433" rx="58" ry="25"/><ellipse cx="929" cy="474" rx="36" ry="18"/><ellipse cx="975" cy="474" rx="38" ry="18"/></g>
</svg>