<svg xmlns="http://www.w3.org/2000/svg" width="1600" height="500" viewBox="0 0 1600 500">
<defs>
<linearGradient id="streakFill0" x1="0" y1="0" x2="1" y2="1"><stop offset="0" stop-color="#FFF4E8" stop-opacity="0.9"/><stop offset="1" stop-color="#8FA8FF" stop-opacity="0.3"/></linearGradient>
<linearGradient id="streakFill1" x1="0" y1="0" x2="1" y2="1"><stop offset="0" stop-color="#FFD9C4" stop-opacity="0.9"/><stop offset="1" stop-color="#9D5CE0" stop-opacity="0.3"/></linearGradient>
<linearGradient id="streakFill2" x1="0" y1="0" x2="1" y2="1"><stop offset="0" stop-color="#F0EAFF" stop-opacity="0.9"/><stop offset="1" stop-color="#E356C8" stop-opacity="0.3"/></linearGradient>
<linearGradient id="streakFill3" x1="0" y1="0" x2="1" y2="1"><stop offset="0" stop-color="#C9E8FF" stop-opacity="0.9"/><stop offset="1" stop-color="#5B7FFF" stop-opacity="0.3"/></linearGradient>
<linearGradient id="streakFill4" x1="0" y1="0" x2="1" y2="1"><stop offset="0" stop-color="#FFF4E8" stop-opacity="0.9"/><stop offset="1" stop-color="#8FA8FF" stop-opacity="0.3"/></linearGradient>
<linearGradient id="streakFill5" x1="0" y1="0" x2="1" y2="1"><stop offset="0" stop-color="#FFD9C4" stop-opacity="0.9"/><stop offset="1" stop-color="#9D5CE0" stop-opacity="0.3"/></linearGradient>
<linearGradient id="streakFill6" x1="0" y1="0" x2="1" y2="1"><stop offset="0" stop-color="#F0EAFF" stop-opacity="0.9"/><stop offset="1" stop-color="#E356C8" stop-opacity="0.3"/></linearGradient>
<linearGradient id="streakFill7" x1="0" y1="0" x2="1" y2="1"><stop offset="0" stop-color="#C9E8FF" stop-opacity="0.9"/><stop offset="1" stop-color="#5B7FFF" stop-opacity="0.3"/></linearGradient>
<filter id="goo11" x="-40%" y="-40%" width="180%" height="180%"><feGaussianBlur in="SourceGraphic" stdDeviation="9.5" result="blur"/><feColorMatrix in="blur" mode="matrix" values="1 0 0 0 0  0 1 0 0 0  0 0 1 0 0  0 0 0 22 -11" result="goo"/></filter>
<filter id="goo22" x="-40%" y="-40%" width="180%" height="180%"><feGaussianBlur in="SourceGraphic" stdDeviation="12.2" result="blur"/><feColorMatrix in="blur" mode="matrix" values="1 0 0 0 0  0 1 0 0 0  0 0 1 0 0  0 0 0 22 -11" result="goo"/></filter>
<filter id="goo33" x="-40%" y="-40%" width="180%" height="180%"><feGaussianBlur in="SourceGraphic" stdDeviation="9.0" result="blur"/><feColorMatrix in="blur" mode="matrix" values="1 0 0 0 0  0 1 0 0 0  0 0 1 0 0  0 0 0 22 -11" result="goo"/></filter>
<filter id="goo44" x="-40%" y="-40%" width="180%" height="180%"><feGaussianBlur in="SourceGraphic" stdDeviation="7.2" result="blur"/><feColorMatrix in="blur" mode="matrix" values="1 0 0 0 0  0 1 0 0 0  0 0 1 0 0  0 0 0 22 -11" result="goo"/></filter>
<filter id="goo55" x="-40%" y="-40%" width="180%" height="180%"><feGaussianBlur in="SourceGraphic" stdDeviation="7.6" result="blur"/><feColorMatrix in="blur" mode="matrix" values="1 0 0 0 0  0 1 0 0 0  0 0 1 0 0  0 0 0 22 -11" result="goo"/></filter>
<filter id="goo66" x="-40%" y="-40%" width="180%" height="180%"><feGaussianBlur in="SourceGraphic" stdDeviation="6.3" result="blur"/><feColorMatrix in="blur" mode="matrix" values="1 0 0 0 0  0 1 0 0 0  0 0 1 0 0  0 0 0 22 -11" result="goo"/></filter>
</defs>
<defs><radialGradient id="baseFill11" cx="0.4" cy="0.35" r="0.8"><stop offset="0" stop-color="rgb(255,235,225)"/><stop offset="1" stop-color="rgb(205,175,155)"/></radialGradient></defs><g filter="url(#goo11)" fill="url(#baseFill11)"><circle cx="480" cy="370" r="25"/><circle cx="42" cy="412" r="11"/><circle cx="343" cy="382" r="36"/><circle cx="347" cy="416" r="25"/><circle cx="24" cy="390" r="13"/><circle cx="215" cy="391" r="28"/><circle cx="287" cy="371" r="39"/><circle cx="305" cy="399" r="26"/><circle cx="426" cy="382" r="30"/><circle cx="221" cy="423" r="24"/><circle cx="307" cy="411" r="25"/><circle cx="467" cy="415" r="21"/><circle cx="14" cy="386" r="8"/><circle cx="294" cy="435" r="37"/><circle cx="202" cy="399" r="35"/><circle cx="218" cy="394" r="36"/><circle cx="199" cy="402" r="36"/><circle cx="-14" cy="404" r="10"/><circle cx="614" cy="396" r="10"/></g><defs><clipPath id="clip11"><circle cx="480" cy="370" r="25"/><circle cx="42" cy="412" r="11"/><circle cx="343" cy="382" r="36"/><circle cx="347" cy="416" r="25"/><circle cx="24" cy="390" r="13"/><circle cx="215" cy="391" r="28"/><circle cx="287" cy="371" r="39"/><circle cx="305" cy="399" r="26"/><circle cx="426" cy="382" r="30"/><circle cx="221" cy="423" r="24"/><circle cx="307" cy="411" r="25"/><circle cx="467" cy="415" r="21"/><circle cx="14" cy="386" r="8"/><circle cx="294" cy="435" r="37"/><circle cx="202" cy="399" r="35"/><circle cx="218" cy="394" r="36"/><circle cx="199" cy="402" r="36"/><circle cx="-14" cy="404" r="10"/><circle cx="614" cy="396" r="10"/></clipPath><radialGradient id="hiWash11" cx="0.5" cy="0.5" r="0.5"><stop offset="0" stop-color="#FFF8EE" stop-opacity="0.85"/><stop offset="1" stop-color="#FFF8EE" stop-opacity="0"/></radialGradient><radialGradient id="shWash11" cx="0.5" cy="0.5" r="0.5"><stop offset="0" stop-color="#B06090" stop-opacity="0.55"/><stop offset="1" stop-color="#B06090" stop-opacity="0"/></radialGradient></defs><g clip-path="url(#clip11)"><ellipse cx="374" cy="445" rx="230" ry="74" fill="url(#hiWash11)"/><ellipse cx="232" cy="357" rx="218" ry="68" fill="url(#shWash11)"/></g>
<defs><radialGradient id="baseFill22" cx="0.4" cy="0.35" r="0.8"><stop offset="0" stop-color="rgb(255,235,225)"/><stop offset="1" stop-color="rgb(205,175,155)"/></radialGradient></defs><g filter="url(#goo22)" fill="url(#baseFill22)"><circle cx="810" cy="409" r="45"/><circle cx="715" cy="334" r="49"/><circle cx="805" cy="372" r="40"/><circle cx="1183" cy="394" r="10"/><circle cx="534" cy="361" r="22"/><circle cx="955" cy="354" r="23"/><circle cx="788" cy="396" r="37"/><circle cx="944" cy="393" r="40"/><circle cx="1187" cy="369" r="9"/><circle cx="751" cy="389" r="34"/><circle cx="515" cy="409" r="27"/><circle cx="974" cy="367" r="27"/><circle cx="739" cy="377" r="57"/><circle cx="758" cy="382" r="59"/><circle cx="734" cy="368" r="65"/><circle cx="404" cy="374" r="13"/><circle cx="1196" cy="380" r="13"/></g><defs><clipPath id="clip22"><circle cx="810" cy="409" r="45"/><circle cx="715" cy="334" r="49"/><circle cx="805" cy="372" r="40"/><circle cx="1183" cy="394" r="10"/><circle cx="534" cy="361" r="22"/><circle cx="955" cy="354" r="23"/><circle cx="788" cy="396" r="37"/><circle cx="944" cy="393" r="40"/><circle cx="1187" cy="369" r="9"/><circle cx="751" cy="389" r="34"/><circle cx="515" cy="409" r="27"/><circle cx="974" cy="367" r="27"/><circle cx="739" cy="377" r="57"/><circle cx="758" cy="382" r="59"/><circle cx="734" cy="368" r="65"/><circle cx="404" cy="374" r="13"/><circle cx="1196" cy="380" r="13"/></clipPath><radialGradient id="hiWash22" cx="0.5" cy="0.5" r="0.5"><stop offset="0" stop-color="#FFF8EE" stop-opacity="0.85"/><stop offset="1" stop-color="#FFF8EE" stop-opacity="0"/></radialGradient><radialGradient id="shWash22" cx="0.5" cy="0.5" r="0.5"><stop offset="0" stop-color="#B06090" stop-opacity="0.55"/><stop offset="1" stop-color="#B06090" stop-opacity="0"/></radialGradient></defs><g clip-path="url(#clip22)"><ellipse cx="894" cy="432" rx="290" ry="94" fill="url(#hiWash22)"/><ellipse cx="714" cy="320" rx="276" ry="88" fill="url(#shWash22)"/></g>
<defs><radialGradient id="baseFill33" cx="0.4" cy="0.35" r="0.8"><stop offset="0" stop-color="rgb(225,235,255)"/><stop offset="1" stop-color="rgb(175,195,225)"/></radialGradient></defs><g filter="url(#goo33)" fill="url(#baseFill33)"><circle cx="1304" cy="422" r="40"/><circle cx="1026" cy="420" r="12"/><circle cx="992" cy="407" r="11"/><circle cx="1348" cy="411" r="32"/><circle cx="1219" cy="416" r="33"/><circle cx="1370" cy="422" r="27"/><circle cx="1447" cy="396" r="24"/><circle cx="1177" cy="383" r="22"/><circle cx="1189" cy="445" r="22"/><circle cx="1328" cy="407" r="38"/><circle cx="1577" cy="414" r="6"/><circle cx="1163" cy="436" r="28"/><circle cx="1208" cy="414" r="26"/><circle cx="1202" cy="396" r="26"/><circle cx="1182" cy="378" r="24"/><circle cx="1304" cy="416" r="51"/><circle cx="1197" cy="406" r="43"/><circle cx="1185" cy="412" r="36"/><circle cx="993" cy="418" r="10"/><circle cx="1567" cy="417" r="10"/></g><defs><clipPath id="clip33"><circle cx="1304" cy="422" r="40"/><circle cx="1026" cy="420" r="12"/><circle cx="992" cy="407" r="11"/><circle cx="1348" cy="411" r="32"/><circle cx="1219" cy="416" r="33"/><circle cx="1370" cy="422" r="27"/><circle cx="1447" cy="396" r="24"/><circle cx="1177" cy="383" r="22"/><circle cx="1189" cy="445" r="22"/><circle cx="1328" cy="407" r="38"/><circle cx="1577" cy="414" r="6"/><circle cx="1163" cy="436" r="28"/><circle cx="1208" cy="414" r="26"/><circle cx="1202" cy="396" r="26"/><circle cx="1182" cy="378" r="24"/><circle cx="1304" cy="416" r="51"/><circle cx="1197" cy="406" r="43"/><circle cx="1185" cy="412" r="36"/><circle cx="993" cy="418" r="10"/><circle cx="1567" cy="417" r="10"/></clipPath><radialGradient id="hiWash33" cx="0.5" cy="0.5" r="0.5"><stop offset="0" stop-color="#F2F6FF" stop-opacity="0.85"/><stop offset="1" stop-color="#F2F6FF" stop-opacity="0"/></radialGradient><radialGradient id="shWash33" cx="0.5" cy="0.5" r="0.5"><stop offset="0" stop-color="#5A6AA8" stop-opacity="0.55"/><stop offset="1" stop-color="#5A6AA8" stop-opacity="0"/></radialGradient></defs><g clip-path="url(#clip33)"><ellipse cx="1349" cy="457" rx="210" ry="70" fill="url(#hiWash33)"/><ellipse cx="1217" cy="375" rx="200" ry="65" fill="url(#shWash33)"/></g>
<defs><radialGradient id="baseFill44" cx="0.4" cy="0.35" r="0.8"><stop offset="0" stop-color="rgb(255,235,225)"/><stop offset="1" stop-color="rgb(205,175,155)"/></radialGradient></defs><g filter="url(#goo44)" fill="url(#baseFill44)"><circle cx="395" cy="442" r="11"/><circle cx="512" cy="450" r="20"/><circle cx="538" cy="444" r="32"/><circle cx="530" cy="437" r="29"/><circle cx="403" cy="430" r="16"/><circle cx="510" cy="453" r="21"/><circle cx="607" cy="459" r="24"/><circle cx="543" cy="454" r="35"/><circle cx="573" cy="438" r="24"/><circle cx="629" cy="453" r="17"/><circle cx="666" cy="464" r="21"/><circle cx="773" cy="455" r="9"/><circle cx="508" cy="420" r="27"/><circle cx="655" cy="421" r="17"/><circle cx="545" cy="443" r="42"/><circle cx="496" cy="443" r="38"/><circle cx="587" cy="450" r="36"/><circle cx="318" cy="448" r="8"/><circle cx="782" cy="447" r="8"/></g><defs><clipPath id="clip44"><circle cx="395" cy="442" r="11"/><circle cx="512" cy="450" r="20"/><circle cx="538" cy="444" r="32"/><circle cx="530" cy="437" r="29"/><circle cx="403" cy="430" r="16"/><circle cx="510" cy="453" r="21"/><circle cx="607" cy="459" r="24"/><circle cx="543" cy="454" r="35"/><circle cx="573" cy="438" r="24"/><circle cx="629" cy="453" r="17"/><circle cx="666" cy="464" r="21"/><circle cx="773" cy="455" r="9"/><circle cx="508" cy="420" r="27"/><circle cx="655" cy="421" r="17"/><circle cx="545" cy="443" r="42"/><circle cx="496" cy="443" r="38"/><circle cx="587" cy="450" r="36"/><circle cx="318" cy="448" r="8"/><circle cx="782" cy="447" r="8"/></clipPath><radialGradient id="hiWash44" cx="0.5" cy="0.5" r="0.5"><stop offset="0" stop-color="#FFF8EE" stop-opacity="0.85"/><stop offset="1" stop-color="#FFF8EE" stop-opacity="0"/></radialGradient><radialGradient id="shWash44" cx="0.5" cy="0.5" r="0.5"><stop offset="0" stop-color="#B06090" stop-opacity="0.55"/><stop offset="1" stop-color="#B06090" stop-opacity="0"/></radialGradient></defs><g clip-path="url(#clip44)"><ellipse cx="605" cy="479" rx="170" ry="56" fill="url(#hiWash44)"/><ellipse cx="499" cy="413" rx="162" ry="52" fill="url(#shWash44)"/></g>
<defs><radialGradient id="baseFill55" cx="0.4" cy="0.35" r="0.8"><stop offset="0" stop-color="rgb(225,235,255)"/><stop offset="1" stop-color="rgb(175,195,225)"/></radialGradient></defs><g filter="url(#goo55)" fill="url(#baseFill55)"><circle cx="1054" cy="440" r="35"/><circle cx="1016" cy="442" r="24"/><circle cx="1221" cy="459" r="15"/><circle cx="1089" cy="428" r="22"/><circle cx="957" cy="440" r="31"/><circle cx="1211" cy="438" r="9"/><circle cx="1009" cy="478" r="29"/><circle cx="1121" cy="441" r="17"/><circle cx="1011" cy="441" r="32"/><circle cx="983" cy="443" r="22"/><circle cx="1052" cy="449" r="19"/><circle cx="1075" cy="437" r="33"/><circle cx="1040" cy="435" r="35"/><circle cx="963" cy="436" r="31"/><circle cx="767" cy="438" r="8"/><circle cx="1273" cy="441" r="8"/></g><defs><clipPath id="clip55"><circle cx="1054" cy="440" r="35"/><circle cx="1016" cy="442" r="24"/><circle cx="1221" cy="459" r="15"/><circle cx="1089" cy="428" r="22"/><circle cx="957" cy="440" r="31"/><circle cx="1211" cy="438" r="9"/><circle cx="1009" cy="478" r="29"/><circle cx="1121" cy="441" r="17"/><circle cx="1011" cy="441" r="32"/><circle cx="983" cy="443" r="22"/><circle cx="1052" cy="449" r="19"/><circle cx="1075" cy="437" r="33"/><circle cx="1040" cy="435" r="35"/><circle cx="963" cy="436" r="31"/><circle cx="767" cy="438" r="8"/><circle cx="1273" cy="441" r="8"/></clipPath><radialGradient id="hiWash55" cx="0.5" cy="0.5" r="0.5"><stop offset="0" stop-color="#F2F6FF" stop-opacity="0.85"/><stop offset="1" stop-color="#F2F6FF" stop-opacity="0"/></radialGradient><radialGradient id="shWash55" cx="0.5" cy="0.5" r="0.5"><stop offset="0" stop-color="#5A6AA8" stop-opacity="0.55"/><stop offset="1" stop-color="#5A6AA8" stop-opacity="0"/></radialGradient></defs><g clip-path="url(#clip55)"><ellipse cx="1080" cy="476" rx="185" ry="60" fill="url(#hiWash55)"/><ellipse cx="965" cy="405" rx="176" ry="55" fill="url(#shWash55)"/></g>
<defs><radialGradient id="baseFill66" cx="0.4" cy="0.35" r="0.8"><stop offset="0" stop-color="rgb(225,235,255)"/><stop offset="1" stop-color="rgb(175,195,225)"/></radialGradient></defs><g filter="url(#goo66)" fill="url(#baseFill66)"><circle cx="26" cy="467" r="21"/><circle cx="43" cy="471" r="23"/><circle cx="248" cy="455" r="14"/><circle cx="138" cy="453" r="27"/><circle cx="70" cy="419" r="25"/><circle cx="-16" cy="452" r="15"/><circle cx="114" cy="440" r="22"/><circle cx="101" cy="440" r="17"/><circle cx="123" cy="452" r="24"/><circle cx="44" cy="425" r="25"/><circle cx="102" cy="441" r="28"/><circle cx="75" cy="441" r="30"/><circle cx="162" cy="434" r="23"/><circle cx="69" cy="440" r="29"/><circle cx="-105" cy="441" r="7"/><circle cx="305" cy="437" r="7"/></g><defs><clipPath id="clip66"><circle cx="26" cy="467" r="21"/><circle cx="43" cy="471" r="23"/><circle cx="248" cy="455" r="14"/><circle cx="138" cy="453" r="27"/><circle cx="70" cy="419" r="25"/><circle cx="-16" cy="452" r="15"/><circle cx="114" cy="440" r="22"/><circle cx="101" cy="440" r="17"/><circle cx="123" cy="452" r="24"/><circle cx="44" cy="425" r="25"/><circle cx="102" cy="441" r="28"/><circle cx="75" cy="441" r="30"/><circle cx="162" cy="434" r="23"/><circle cx="69" cy="440" r="29"/><circle cx="-105" cy="441" r="7"/><circle cx="305" cy="437" r="7"/></clipPath><radialGradient id="hiWash66" cx="0.5" cy="0.5" r="0.5"><stop offset="0" stop-color="#F2F6FF" stop-opacity="0.85"/><stop offset="1" stop-color="#F2F6FF" stop-opacity="0"/></radialGradient><radialGradient id="shWash66" cx="0.5" cy="0.5" r="0.5"><stop offset="0" stop-color="#5A6AA8" stop-opacity="0.55"/><stop offset="1" stop-color="#5A6AA8" stop-opacity="0"/></radialGradient></defs><g clip-path="url(#clip66)"><ellipse cx="149" cy="470" rx="150" ry="49" fill="url(#hiWash66)"/><ellipse cx="55" cy="412" rx="142" ry="46" fill="url(#shWash66)"/></g>
<path d="M-196.6,238.7 Q194.9,207.5 496.6,141.3 Q105.1,172.5 -196.6,238.7 Z" fill="url(#streakFill0)"/>
<path d="M232.1,380.8 Q669.4,362.0 1007.9,299.2 Q570.6,318.0 232.1,380.8 Z" fill="url(#streakFill1)"/>
<path d="M754.6,352.1 Q1089.1,314.2 1345.4,247.9 Q1010.9,285.8 754.6,352.1 Z" fill="url(#streakFill2)"/>
<path d="M1101.9,410.5 Q1382.0,394.2 1598.1,349.5 Q1318.0,365.8 1101.9,410.5 Z" fill="url(#streakFill3)"/>
<path d="M141.0,452.7 Q432.6,444.6 659.0,407.3 Q367.4,415.4 141.0,452.7 Z" fill="url(#streakFill4)"/>
<path d="M537.0,326.5 Q892.5,275.0 1163.0,193.5 Q807.5,245.0 537.0,326.5 Z" fill="url(#streakFill5)"/>
<path d="M963.0,197.5 Q1231.0,171.9 1437.0,122.5 Q1169.0,148.1 963.0,197.5 Z" fill="url(#streakFill6)"/>
<path d="M-126.5,356.3 Q85.0,329.2 246.5,283.7 Q35.0,310.8 -126.5,356.3 Z" fill="url(#streakFill7)"/>
</svg>