<svg xmlns="http://www.w3.org/2000/svg" width="1600" height="500" viewBox="0 0 1600 500">
<defs>
<linearGradient id="streakFill0" x1="0" y1="0" x2="1" y2="1"><stop offset="0" stop-color="#FFF4E8" stop-opacity="0.95"/><stop offset="1" stop-color="#8FA8FF" stop-opacity="0.35"/></linearGradient>
<linearGradient id="streakFill1" x1="0" y1="0" x2="1" y2="1"><stop offset="0" stop-color="#FFD9C4" stop-opacity="0.95"/><stop offset="1" stop-color="#9D5CE0" stop-opacity="0.35"/></linearGradient>
<linearGradient id="streakFill2" x1="0" y1="0" x2="1" y2="1"><stop offset="0" stop-color="#F0EAFF" stop-opacity="0.95"/><stop offset="1" stop-color="#E356C8" stop-opacity="0.35"/></linearGradient>
<linearGradient id="streakFill3" x1="0" y1="0" x2="1" y2="1"><stop offset="0" stop-color="#C9E8FF" stop-opacity="0.95"/><stop offset="1" stop-color="#5B7FFF" stop-opacity="0.35"/></linearGradient>
<linearGradient id="streakFill4" x1="0" y1="0" x2="1" y2="1"><stop offset="0" stop-color="#FFF4E8" stop-opacity="0.95"/><stop offset="1" stop-color="#8FA8FF" stop-opacity="0.35"/></linearGradient>
<linearGradient id="streakFill5" x1="0" y1="0" x2="1" y2="1"><stop offset="0" stop-color="#FFD9C4" stop-opacity="0.95"/><stop offset="1" stop-color="#9D5CE0" stop-opacity="0.35"/></linearGradient>
<filter id="goo11" x="-40%" y="-40%" width="180%" height="180%"><feGaussianBlur in="SourceGraphic" stdDeviation="11.7" result="blur"/><feColorMatrix in="blur" mode="matrix" values="1 0 0 0 0  0 1 0 0 0  0 0 1 0 0  0 0 0 22 -11" result="goo"/></filter>
<filter id="goo22" x="-40%" y="-40%" width="180%" height="180%"><feGaussianBlur in="SourceGraphic" stdDeviation="15.3" result="blur"/><feColorMatrix in="blur" mode="matrix" values="1 0 0 0 0  0 1 0 0 0  0 0 1 0 0  0 0 0 22 -11" result="goo"/></filter>
<filter id="goo33" x="-40%" y="-40%" width="180%" height="180%"><feGaussianBlur in="SourceGraphic" stdDeviation="11.2" result="blur"/><feColorMatrix in="blur" mode="matrix" values="1 0 0 0 0  0 1 0 0 0  0 0 1 0 0  0 0 0 22 -11" result="goo"/></filter>
<filter id="goo44" x="-40%" y="-40%" width="180%" height="180%"><feGaussianBlur in="SourceGraphic" stdDeviation="8.5" result="blur"/><feColorMatrix in="blur" mode="matrix" values="1 0 0 0 0  0 1 0 0 0  0 0 1 0 0  0 0 0 22 -11" result="goo"/></filter>
<filter id="goo55" x="-40%" y="-40%" width="180%" height="180%"><feGaussianBlur in="SourceGraphic" stdDeviation="9.5" result="blur"/><feColorMatrix in="blur" mode="matrix" values="1 0 0 0 0  0 1 0 0 0  0 0 1 0 0  0 0 0 22 -11" result="goo"/></filter>
<filter id="goo66" x="-40%" y="-40%" width="180%" height="180%"><feGaussianBlur in="SourceGraphic" stdDeviation="7.6" result="blur"/><feColorMatrix in="blur" mode="matrix" values="1 0 0 0 0  0 1 0 0 0  0 0 1 0 0  0 0 0 22 -11" result="goo"/></filter>
</defs>
<path d="M-53.2,224.5 Q291.4,175.9 553.2,95.5 Q208.6,144.1 -53.2,224.5 Z" fill="url(#streakFill0)"/>
<path d="M245.5,172.5 Q647.6,131.0 954.5,47.5 Q552.4,89.0 245.5,172.5 Z" fill="url(#streakFill1)"/>
<path d="M709.5,217.5 Q1017.9,156.7 1250.5,72.5 Q942.1,133.3 709.5,217.5 Z" fill="url(#streakFill2)"/>
<path d="M1062.3,133.4 Q1331.1,114.5 1537.7,66.6 Q1268.9,85.5 1062.3,133.4 Z" fill="url(#streakFill3)"/>
<path d="M-44.1,308.4 Q177.2,269.9 344.1,211.6 Q122.8,250.1 -44.1,308.4 Z" fill="url(#streakFill4)"/>
<path d="M1233.5,246.3 Q1445.6,222.2 1606.5,173.7 Q1394.4,197.8 1233.5,246.3 Z" fill="url(#streakFill5)"/>
<defs><radialGradient id="baseFill11" cx="0.4" cy="0.35" r="0.8"><stop offset="0" stop-color="rgb(255,235,225)"/><stop offset="1" stop-color="rgb(205,175,155)"/></radialGradient></defs><g filter="url(#goo11)" fill="url(#baseFill11)"><circle cx="411" cy="361" r="44"/><circle cx="141" cy="416" r="31"/><circle cx="326" cy="377" r="48"/><circle cx="328" cy="421" r="35"/><circle cx="130" cy="387" r="40"/><circle cx="249" cy="389" r="45"/><circle cx="293" cy="364" r="45"/><circle cx="303" cy="398" r="36"/><circle cx="376" cy="377" r="50"/><circle cx="252" cy="429" r="35"/><circle cx="304" cy="413" r="33"/><circle cx="401" cy="419" r="39"/><circle cx="123" cy="382" r="27"/><circle cx="279" cy="404" r="72"/><circle cx="260" cy="399" r="63"/><circle cx="267" cy="391" r="62"/></g><defs><clipPath id="clip11"><circle cx="411" cy="361" r="44"/><circle cx="141" cy="416" r="31"/><circle cx="326" cy="377" r="48"/><circle cx="328" cy="421" r="35"/><circle cx="130" cy="387" r="40"/><circle cx="249" cy="389" r="45"/><circle cx="293" cy="364" r="45"/><circle cx="303" cy="398" r="36"/><circle cx="376" cy="377" r="50"/><circle cx="252" cy="429" r="35"/><circle cx="304" cy="413" r="33"/><circle cx="401" cy="419" r="39"/><circle cx="123" cy="382" r="27"/><circle cx="279" cy="404" r="72"/><circle cx="260" cy="399" r="63"/><circle cx="267" cy="391" r="62"/></clipPath><radialGradient id="hiWash11" cx="0.5" cy="0.5" r="0.5"><stop offset="0" stop-color="#FFF8EE" stop-opacity="0.85"/><stop offset="1" stop-color="#FFF8EE" stop-opacity="0"/></radialGradient><radialGradient id="shWash11" cx="0.5" cy="0.5" r="0.5"><stop offset="0" stop-color="#B06090" stop-opacity="0.55"/><stop offset="1" stop-color="#B06090" stop-opacity="0"/></radialGradient></defs><g clip-path="url(#clip11)"><ellipse cx="358" cy="435" rx="124" ry="84" fill="url(#hiWash11)"/><ellipse cx="247" cy="367" rx="117" ry="78" fill="url(#shWash11)"/></g>
<defs><radialGradient id="baseFill22" cx="0.4" cy="0.35" r="0.8"><stop offset="0" stop-color="rgb(255,235,225)"/><stop offset="1" stop-color="rgb(205,175,155)"/></radialGradient></defs><g filter="url(#goo22)" fill="url(#baseFill22)"><circle cx="756" cy="419" r="54"/><circle cx="703" cy="321" r="65"/><circle cx="752" cy="372" r="57"/><circle cx="996" cy="400" r="37"/><circle cx="581" cy="357" r="50"/><circle cx="847" cy="348" r="40"/><circle cx="743" cy="402" r="48"/><circle cx="840" cy="399" r="65"/><circle cx="998" cy="367" r="34"/><circle cx="720" cy="393" r="50"/><circle cx="568" cy="420" r="59"/><circle cx="800" cy="372" r="87"/><circle cx="725" cy="378" r="92"/><circle cx="733" cy="386" r="91"/></g><defs><clipPath id="clip22"><circle cx="756" cy="419" r="54"/><circle cx="703" cy="321" r="65"/><circle cx="752" cy="372" r="57"/><circle cx="996" cy="400" r="37"/><circle cx="581" cy="357" r="50"/><circle cx="847" cy="348" r="40"/><circle cx="743" cy="402" r="48"/><circle cx="840" cy="399" r="65"/><circle cx="998" cy="367" r="34"/><circle cx="720" cy="393" r="50"/><circle cx="568" cy="420" r="59"/><circle cx="800" cy="372" r="87"/><circle cx="725" cy="378" r="92"/><circle cx="733" cy="386" r="91"/></clipPath><radialGradient id="hiWash22" cx="0.5" cy="0.5" r="0.5"><stop offset="0" stop-color="#FFF8EE" stop-opacity="0.85"/><stop offset="1" stop-color="#FFF8EE" stop-opacity="0"/></radialGradient><radialGradient id="shWash22" cx="0.5" cy="0.5" r="0.5"><stop offset="0" stop-color="#B06090" stop-opacity="0.55"/><stop offset="1" stop-color="#B06090" stop-opacity="0"/></radialGradient></defs><g clip-path="url(#clip22)"><ellipse cx="825" cy="421" rx="162" ry="110" fill="url(#hiWash22)"/><ellipse cx="681" cy="331" rx="153" ry="102" fill="url(#shWash22)"/></g>
<defs><radialGradient id="baseFill33" cx="0.4" cy="0.35" r="0.8"><stop offset="0" stop-color="rgb(225,235,255)"/><stop offset="1" stop-color="rgb(175,195,225)"/></radialGradient></defs><g filter="url(#goo33)" fill="url(#baseFill33)"><circle cx="1235" cy="423" r="56"/><circle cx="1055" cy="422" r="37"/><circle cx="1032" cy="405" r="42"/><circle cx="1262" cy="410" r="51"/><circle cx="1182" cy="416" r="51"/><circle cx="1276" cy="423" r="45"/><circle cx="1327" cy="390" r="47"/><circle cx="1154" cy="373" r="32"/><circle cx="1161" cy="454" r="32"/><circle cx="1249" cy="405" r="56"/><circle cx="1414" cy="413" r="25"/><circle cx="1145" cy="441" r="47"/><circle cx="1176" cy="414" r="41"/><circle cx="1170" cy="391" r="39"/><circle cx="1235" cy="422" r="66"/><circle cx="1230" cy="417" r="77"/><circle cx="1185" cy="402" r="76"/></g><defs><clipPath id="clip33"><circle cx="1235" cy="423" r="56"/><circle cx="1055" cy="422" r="37"/><circle cx="1032" cy="405" r="42"/><circle cx="1262" cy="410" r="51"/><circle cx="1182" cy="416" r="51"/><circle cx="1276" cy="423" r="45"/><circle cx="1327" cy="390" r="47"/><circle cx="1154" cy="373" r="32"/><circle cx="1161" cy="454" r="32"/><circle cx="1249" cy="405" r="56"/><circle cx="1414" cy="413" r="25"/><circle cx="1145" cy="441" r="47"/><circle cx="1176" cy="414" r="41"/><circle cx="1170" cy="391" r="39"/><circle cx="1235" cy="422" r="66"/><circle cx="1230" cy="417" r="77"/><circle cx="1185" cy="402" r="76"/></clipPath><radialGradient id="hiWash33" cx="0.5" cy="0.5" r="0.5"><stop offset="0" stop-color="#F2F6FF" stop-opacity="0.85"/><stop offset="1" stop-color="#F2F6FF" stop-opacity="0"/></radialGradient><radialGradient id="shWash33" cx="0.5" cy="0.5" r="0.5"><stop offset="0" stop-color="#5A6AA8" stop-opacity="0.55"/><stop offset="1" stop-color="#5A6AA8" stop-opacity="0"/></radialGradient></defs><g clip-path="url(#clip33)"><ellipse cx="1275" cy="449" rx="119" ry="81" fill="url(#hiWash33)"/><ellipse cx="1169" cy="383" rx="112" ry="75" fill="url(#shWash33)"/></g>
<defs><radialGradient id="baseFill44" cx="0.4" cy="0.35" r="0.8"><stop offset="0" stop-color="rgb(255,235,225)"/><stop offset="1" stop-color="rgb(205,175,155)"/></radialGradient></defs><g filter="url(#goo44)" fill="url(#baseFill44)"><circle cx="427" cy="441" r="23"/><circle cx="498" cy="451" r="29"/><circle cx="513" cy="444" r="43"/><circle cx="508" cy="436" r="38"/><circle cx="431" cy="427" r="32"/><circle cx="497" cy="454" r="30"/><circle cx="554" cy="461" r="34"/><circle cx="516" cy="455" r="44"/><circle cx="533" cy="437" r="32"/><circle cx="567" cy="455" r="27"/><circle cx="590" cy="468" r="34"/><circle cx="656" cy="457" r="29"/><circle cx="498" cy="415" r="33"/><circle cx="541" cy="449" r="50"/><circle cx="518" cy="442" r="57"/><circle cx="498" cy="443" r="61"/></g><defs><clipPath id="clip44"><circle cx="427" cy="441" r="23"/><circle cx="498" cy="451" r="29"/><circle cx="513" cy="444" r="43"/><circle cx="508" cy="436" r="38"/><circle cx="431" cy="427" r="32"/><circle cx="497" cy="454" r="30"/><circle cx="554" cy="461" r="34"/><circle cx="516" cy="455" r="44"/><circle cx="533" cy="437" r="32"/><circle cx="567" cy="455" r="27"/><circle cx="590" cy="468" r="34"/><circle cx="656" cy="457" r="29"/><circle cx="498" cy="415" r="33"/><circle cx="541" cy="449" r="50"/><circle cx="518" cy="442" r="57"/><circle cx="498" cy="443" r="61"/></clipPath><radialGradient id="hiWash44" cx="0.5" cy="0.5" r="0.5"><stop offset="0" stop-color="#FFF8EE" stop-opacity="0.85"/><stop offset="1" stop-color="#FFF8EE" stop-opacity="0"/></radialGradient><radialGradient id="shWash44" cx="0.5" cy="0.5" r="0.5"><stop offset="0" stop-color="#B06090" stop-opacity="0.55"/><stop offset="1" stop-color="#B06090" stop-opacity="0"/></radialGradient></defs><g clip-path="url(#clip44)"><ellipse cx="562" cy="471" rx="90" ry="62" fill="url(#hiWash44)"/><ellipse cx="481" cy="421" rx="86" ry="57" fill="url(#shWash44)"/></g>
<defs><radialGradient id="baseFill55" cx="0.4" cy="0.35" r="0.8"><stop offset="0" stop-color="rgb(225,235,255)"/><stop offset="1" stop-color="rgb(175,195,225)"/></radialGradient></defs><g filter="url(#goo55)" fill="url(#baseFill55)"><circle cx="1000" cy="440" r="52"/><circle cx="978" cy="442" r="33"/><circle cx="1105" cy="464" r="37"/><circle cx="1022" cy="426" r="34"/><circle cx="943" cy="440" r="49"/><circle cx="1098" cy="438" r="23"/><circle cx="974" cy="489" r="29"/><circle cx="1041" cy="442" r="30"/><circle cx="975" cy="442" r="44"/><circle cx="958" cy="443" r="32"/><circle cx="957" cy="434" r="49"/><circle cx="1002" cy="436" r="55"/><circle cx="988" cy="432" r="52"/></g><defs><clipPath id="clip55"><circle cx="1000" cy="440" r="52"/><circle cx="978" cy="442" r="33"/><circle cx="1105" cy="464" r="37"/><circle cx="1022" cy="426" r="34"/><circle cx="943" cy="440" r="49"/><circle cx="1098" cy="438" r="23"/><circle cx="974" cy="489" r="29"/><circle cx="1041" cy="442" r="30"/><circle cx="975" cy="442" r="44"/><circle cx="958" cy="443" r="32"/><circle cx="957" cy="434" r="49"/><circle cx="1002" cy="436" r="55"/><circle cx="988" cy="432" r="52"/></clipPath><radialGradient id="hiWash55" cx="0.5" cy="0.5" r="0.5"><stop offset="0" stop-color="#F2F6FF" stop-opacity="0.85"/><stop offset="1" stop-color="#F2F6FF" stop-opacity="0"/></radialGradient><radialGradient id="shWash55" cx="0.5" cy="0.5" r="0.5"><stop offset="0" stop-color="#5A6AA8" stop-opacity="0.55"/><stop offset="1" stop-color="#5A6AA8" stop-opacity="0"/></radialGradient></defs><g clip-path="url(#clip55)"><ellipse cx="1026" cy="468" rx="100" ry="68" fill="url(#hiWash55)"/><ellipse cx="937" cy="413" rx="94" ry="63" fill="url(#shWash55)"/></g>
<defs><radialGradient id="baseFill66" cx="0.4" cy="0.35" r="0.8"><stop offset="0" stop-color="rgb(225,235,255)"/><stop offset="1" stop-color="rgb(175,195,225)"/></radialGradient></defs><g filter="url(#goo66)" fill="url(#baseFill66)"><circle cx="84" cy="475" r="28"/><circle cx="99" cy="479" r="27"/><circle cx="221" cy="459" r="30"/><circle cx="153" cy="456" r="36"/><circle cx="114" cy="414" r="30"/><circle cx="59" cy="455" r="29"/><circle cx="138" cy="440" r="30"/><circle cx="131" cy="440" r="23"/><circle cx="142" cy="455" r="31"/><circle cx="96" cy="421" r="36"/><circle cx="113" cy="430" r="51"/><circle cx="120" cy="441" r="45"/><circle cx="155" cy="431" r="41"/></g><defs><clipPath id="clip66"><circle cx="84" cy="475" r="28"/><circle cx="99" cy="479" r="27"/><circle cx="221" cy="459" r="30"/><circle cx="153" cy="456" r="36"/><circle cx="114" cy="414" r="30"/><circle cx="59" cy="455" r="29"/><circle cx="138" cy="440" r="30"/><circle cx="131" cy="440" r="23"/><circle cx="142" cy="455" r="31"/><circle cx="96" cy="421" r="36"/><circle cx="113" cy="430" r="51"/><circle cx="120" cy="441" r="45"/><circle cx="155" cy="431" r="41"/></clipPath><radialGradient id="hiWash66" cx="0.5" cy="0.5" r="0.5"><stop offset="0" stop-color="#F2F6FF" stop-opacity="0.85"/><stop offset="1" stop-color="#F2F6FF" stop-opacity="0"/></radialGradient><radialGradient id="shWash66" cx="0.5" cy="0.5" r="0.5"><stop offset="0" stop-color="#5A6AA8" stop-opacity="0.55"/><stop offset="1" stop-color="#5A6AA8" stop-opacity="0"/></radialGradient></defs><g clip-path="url(#clip66)"><ellipse cx="168" cy="463" rx="81" ry="55" fill="url(#hiWash66)"/><ellipse cx="96" cy="418" rx="76" ry="51" fill="url(#shWash66)"/></g>
</svg>