<?xml version="1.0" encoding="utf-8"?>
<svg xmlns="http://www.w3.org/2000/svg" xmlns:xlink="http://www.w3.org/1999/xlink" version= "1.1" width="2529px" height="2529px" viewBox="-654 0 2529 2529">
<defs>
  <linearGradient id="gradMain" x1="0%" y1="0%" x2="100%" y2="100%">
    <stop offset="0%" stop-color="#120a28" stop-opacity="0.88"/>
    <stop offset="22%" stop-color="#5B7FFF" stop-opacity="0.55"/>
    <stop offset="45%" stop-color="#D4C8FF" stop-opacity="0.42"/>
    <stop offset="62%" stop-color="#7B93FF" stop-opacity="0.5"/>
    <stop offset="82%" stop-color="#FF4FA3" stop-opacity="0.42"/>
    <stop offset="100%" stop-color="#150c2e" stop-opacity="0.85"/>
  </linearGradient>
  <linearGradient id="gradDark" x1="10%" y1="0%" x2="90%" y2="100%">
    <stop offset="0%" stop-color="#0d0620" stop-opacity="0.82"/>
    <stop offset="45%" stop-color="#7B93FF" stop-opacity="0.28"/>
    <stop offset="55%" stop-color="#1c1040" stop-opacity="0.45"/>
    <stop offset="100%" stop-color="#0d0620" stop-opacity="0.78"/>
  </linearGradient>
  <linearGradient id="gradMetal" x1="0%" y1="0%" x2="100%" y2="100%">
    <stop offset="0%" stop-color="#F0EAFF" stop-opacity="0.9"/>
    <stop offset="40%" stop-color="#7B93FF" stop-opacity="0.7"/>
    <stop offset="100%" stop-color="#FF4FA3" stop-opacity="0.65"/>
  </linearGradient>
  <linearGradient id="gradMetalLight" x1="0%" y1="0%" x2="100%" y2="100%">
    <stop offset="0%" stop-color="#ffffff" stop-opacity="0.95"/>
    <stop offset="60%" stop-color="#B8A8FF" stop-opacity="0.7"/>
    <stop offset="100%" stop-color="#7B93FF" stop-opacity="0.55"/>
  </linearGradient>
  <radialGradient id="gradSpark" cx="50%" cy="50%" r="60%">
    <stop offset="0%" stop-color="#FFD9C4" stop-opacity="1"/>
    <stop offset="50%" stop-color="#FF4FA3" stop-opacity="0.9"/>
    <stop offset="100%" stop-color="#FF4FA3" stop-opacity="0.2"/>
  </radialGradient>
  <filter id="neonBloom" x="-40%" y="-40%" width="180%" height="180%">
    <feGaussianBlur in="SourceGraphic" stdDeviation="10" result="blur1"/>
    <feMerge>
      <feMergeNode in="blur1"/>
      <feMergeNode in="SourceGraphic"/>
    </feMerge>
  </filter>
</defs>
<g id="layer1" filter="url(#neonBloom)" opacity="0.92">
<g style="fill:url(#gradMain); stroke-linejoin: miter">
<path d="M377.77487,476.04996L465.3589,476.053L497.07043,477.56003L545.39246,486.62045L534.822,488.13052L525.7617,485.11035L404.95618,485.11038L335.4929,497.19095L315.86197,486.62045L377.77487,476.04996 M459.31848,291.8215L458.84238,293.19144Q251.16702,313.78754,163.34499,391.48615Q100.46799,446.36542,113.51271,477.5601Q52.09346,547.3155,23.13221,593.33215L-26.923828,699.5403Q-50.018272,774.31287,-33.456726,771.8453Q-19.543167,775.6155,-5.782898,772.02374Q-19.019373,756.5127,33.477364,728.73346Q104.62065,705.922,123.263016,710.1432Q167.68863,712.5275,241.86862,781.0842Q120.62959,704.6438,50.089737,773.53375L463.84885,867.1581Q467.74557,823.9147,448.96643,774.6041Q370.1155,688.4347,376.26486,676.8893Q402.3955,584.8191,386.8352,560.6139Q517.35626,605.0766,642.0371,682.92957Q542.91876,588.6039,364.18417,522.8621Q421.07263,487.78558,642.0371,589.3052Q588.44336,539.9325,504.62054,521.3521Q531.04694,514.5567,645.05707,547.02325Q631.29175,485.49255,605.7953,435.27808Q448.74808,386.95587,237.33835,453.399Q359.65393,374.87534,590.6945,411.11697Q580.56616,384.7719,566.93176,369.12582Q556.13007,336.29953,333.2504,374.5573Q201.72998,407.2552,140.69391,465.47955Q223.6304,324.92563,534.82196,340.1437Q488.00977,285.78113,459.31848,291.8215 M1087.5078,518.3319Q1099.5879,536.45276,1087.5078,518.3319 M525.76184,642.1576L608.8157,691.98987Q652.195,712.2077,684.3193,743.3322Q688.0104,790.7596,690.3595,791.65466L685.8291,793.1646L598.2451,699.5402Q521.13837,640.6104,525.76184,642.1576 M145.22412,968.3327L146.73425,972.8629L145.22412,980.4133Q141.53287,978.73535,140.82442,977.0576Q140.47,976.2189,140.86182,975.37976L141.43964,974.5408Q142.20422,973.70184,143.71417,972.8629L145.22412,968.3327 M-152.75038,1030.7366L-150.46986,1030.805Q-142.64851,1031.5968,-139.66457,1034.0936L-109.977615,1057.427L-106.95747,1069.5077L-114.50789,1071.0177L-138.66896,1052.8969Q-153.46075,1054.8994,-159.13264,1048.5282Q-160.1796,1047.4874,-161.31996,1045.3463L-162.83003,1031.7559Q-159.51915,1030.974,-152.75038,1030.7366 M-54.10505,1049.8766L-52.594975,1060.4471L-63.32505,1080.4197Q-64.19687,1081.9177,-68.801155,1085.516Q-73.81084,1090.9856,-96.38697,1089.1383L-96.38697,1086.1183Q-76.872,1083.4856,-69.8769,1076.3866Q-62.30757,1071.5397,-54.10505,1049.8766 M677.1238,955.9485L687.1255,956.3438Q750.06665,957.86304,748.19037,1044.1244Q742.35376,1087.2222,704.07776,1135.2393Q691.8054,1155.1819,643.5471,1176.7222L694.9568,1127.7961Q702.1383,1119.8398,708.5647,1102.4779L723.5807,1021.1852Q713.0725,981.4178,702.3153,985.9546Q687.1684,974.73413,655.6277,1016.65485Q618.7239,1009.1885,620.7096,1019.5073L659.68176,1066.7561Q662.8693,1072.2871,666.04614,1081.0687Q674.64496,1124.6711,654.0802,1138.2621Q660.93164,1143.1001,610.3257,1149.5411L592.2047,1146.521L547.5554,1167.6229Q532.2306,1174.4769,515.1913,1154.0713Q522.7413,1131.4204,554.4531,1120.8496Q557.9445,1076.1061,568.2754,1074.0953L574.08386,1071.0175L607.3054,1092.1583L608.8154,1072.5275Q600.86127,1063.7777,601.7057,1046.2294Q603.79865,1024.3568,612.5581,1003.7781Q631.169,960.16797,677.1238,955.9485 M-2.762619,811.2855L-11.823105,817.32587L-43.534546,852.05743Q7.8078613,935.1113,-13.333069,939.6415Q-39.507706,955.0778,-44.205643,949.0374L-64.172134,871.73627Q-118.534744,935.08746,-186.9911,968.33276L-203.60193,990.98376Q-210.18764,1030.2567,-146.73404,1085.4958Q-127.08608,1092.4698,-183.97102,1140.4807Q-182.27454,1133.3777,-156.78975,1143.501Q-119.32647,1188.0496,-54.840424,1243.7485Q-59.63542,1253.3022,-165.85017,1212.964Q-177.48795,1212.6837,-196.23056,1243.322Q-202.30954,1263.2405,-194.3807,1279.2463Q-123.64858,1281.7528,-125.078255,1311.1187Q-164.34001,1303.5681,-185.48103,1404.7429Q-172.05812,1463.8031,-149.09021,1475.1382L-105.44734,1490.8169Q-20.380066,1484.2732,31.130081,1479.0718Q133.01529,1472.8326,316.71454,1427.5027Q320.75897,1427.7852,389.85547,1382.0918Q474.92023,1273.1223,485.49805,1225.5342Q503.94647,1213.6505,527.5282,1218.1243Q531.31116,1220.8376,530.2919,1232.5951Q499.19562,1243.2399,494.0503,1259.7762Q505.50085,1269.6672,539.6881,1268.1655Q631.8922,1225.3397,659.76227,1205.105Q845.4885,1061.2755,727.8256,933.868Q723.33844,930.0029,667.7084,920.0105Q624.5277,933.70935,555.96313,992.4939L531.802,989.47363Q488.6964,984.8785,472.9093,915.4804L445.72803,906.4199L407.97632,895.8495Q364.50726,914.2003,325.7865,907.4697Q178.17294,868.2492,145.22412,874.7084L57.640106,838.46674Q46.901855,850.5473,50.48134,853.08276L179.95578,894.3394L31.96901,927.561Q69.72064,871.6882,-7.2928314,858.0977Q5.542801,837.71185,33.47902,856.5876L48.579727,823.366L83.31128,824.8762Q78.1752,818.0994,-2.762619,811.2855 M202.60684,823.3661L204.26614,824.20496Q206.87001,825.51013,207.17435,827.5607Q206.77893,829.6114,204.11697,830.91644L202.60684,838.4668L193.54648,835.44666L189.01613,836.95667L204.11697,827.8963L202.60684,823.3661 M90.8617,826.3863L110.49251,830.9165L107.47243,836.95667L112.00264,844.50714L118.04292,841.487L118.04292,847.5272L122.573135,849.0373L121.063065,853.56757L86.33143,830.9165L90.8617,826.3863 M217.70743,826.38617L228.27792,830.9164L217.70743,835.4466L217.70743,826.38617 M247.9089,829.4064Q229.78818,853.5675,247.9089,829.4064 M211.66719,835.4466Q199.58662,853.56744,211.66719,835.4466 M235.82838,844.507L235.82838,853.56744L228.27797,852.0573L235.82838,844.507 M217.70747,850.5474L225.25784,852.05743L228.27797,861.11786L222.23776,864.138L223.74776,859.6077L216.19746,855.0776L217.70747,850.5474 M199.5867,853.56757L202.60684,859.6077L208.64705,859.6108L213.17734,861.1179Q210.19177,862.6837,210.0453,865.1447Q210.18967,867.5496,216.19748,870.1783L214.68735,874.7085L211.6672,868.66815L198.07663,858.0977L199.5867,853.56757 M229.78813,865.648L228.89952,866.8225Q226.04105,871.5206,234.31834,876.2185L232.80833,880.7487L228.27812,879.23865L228.27812,873.1984Q225.25798,871.5206,225.22069,869.84265Q225.28604,868.5845,226.84251,867.3258Q227.61986,866.6735,229.78813,865.648 M1217.3738,865.64795L1215.6772,869.3207Q1197.8821,1040.1581,1185.4453,1081.5947Q1119.3278,1238.6316,1101.0984,1395.6824Q1068.8557,1597.5002,1074.6069,1658.1177Q1041.8611,1675.2026,1197.7429,2217.1636Q1085.998,1667.4938,1209.8235,2150.7173Q1251.8536,2352.6104,1256.6357,2454.2417Q1204.9578,2215.9863,1127.0308,2108.976L894.38544,1847.3Q874.47174,1832.1993,771.15607,1838.2521Q741.6448,1840.5098,729.6211,1848.7031L883.6484,2105.415Q1068.235,2112.893,1169.0518,2324.3755Q1020.4121,2103.2305,838.7739,2138.6255Q584.934,2223.4902,515.1914,2495.013L1285.327,2498.0337Q1235.0936,2065.3452,1176.6018,1785.2804L1164.5212,1591.9916Q1161.5011,1484.7764,1176.6016,1292.9978L1221.9038,939.6415L1217.3738,865.64795 M84.82142,880.7487L125.59328,894.33936L99.92207,901.8897L78.781136,904.90985L80.291145,900.37964Q78.21021,891.2889,79.56455,887.4233Q80.719795,882.613,84.82142,880.7487 M492.54016,1264.3064L498.58044,1276.387L516.70135,1294.5077L545.39246,1308.0984L544.9923,1310.3828Q543.9472,1326.4514,525.7617,1342.8301L504.62076,1345.8501L491.03003,1335.2797L488.65442,1330.9437Q476.10123,1294.3365,492.54016,1264.3064 M571.0638,1294.5077L574.08386,1303.5681L617.87604,1299.038Q530.4225,1599.0015,385.32544,1993.6699L706.97034,1853.2334L741.7018,1912.1262Q357.99255,2107.2773,284.09476,2108.8826L130.1236,2330.4158L51.600105,2366.6577L263.00974,2028.4015Q338.2616,2014.2052,364.1844,2002.7302Q419.68414,1854.4082,494.0504,1628.2334Q242.71707,1711.4458,226.76797,1708.2671Q213.97351,1699.9011,246.31714,1598.1531Q261.0964,1565.4513,388.34546,1447.0247Q445.59433,1358.4104,453.2783,1309.6085Q465.45233,1388.2064,516.8878,1379.8918Q564.6176,1378.6882,571.0638,1294.5077 M1030.1251,1466.6554L1034.6552,1468.1656L1031.6351,1504.4073L1031.6354,1582.931Q1036.1654,1585.9515,1034.6554,1625.2129Q1052.7764,1801.8914,1070.8969,1924.2068L1089.0181,2023.8716L1085.9978,2023.8746Q1034.6553,1827.5609,1031.6354,1800.3812Q1023.6842,1739.8943,1021.06464,1723.3677Q1017.2897,1704.4916,1016.5345,1579.911L1019.55475,1567.8306L1019.55475,1543.6693L1030.1251,1466.6554 M746.23206,1922.6967L862.5075,2111.4553Q684.1675,2156.3528,609.11884,2257.2307Q553.6516,2324.077,507.6411,2499.543L-25.413513,2498.0334L48.57991,2381.758L144.2251,2332.1013L286.90982,2120.0872Q362.97455,2115.3105,746.23206,1922.6967 M217.70761,2001.2205L225.25797,2002.7307Q226.80556,2019.155,219.88152,2035.6089Q199.70212,2061.2039,24.418762,2357.597L19.888552,2331.9253L54.620125,2263.973L59.150406,2262.4624L96.902054,2200.55L101.432274,2199.0398L99.922195,2194.5095L122.57326,2165.818L151.26454,2109.9456L155.79474,2108.4353L154.28474,2103.9055L158.8149,2102.3953Q156.10236,2102.2183,163.34515,2082.7642L188.06233,2035.4412Q196.12944,2022.4458,217.70761,2001.2205 M9.318115,2351.557L10.828125,2377.2278L-60.145084,2499.5435L-85.81629,2498.0334L-75.2458,2481.4226L-70.715645,2479.912L-63.16523,2463.302L-58.63508,2461.7917Q-62.589493,2459.9336,-61.138756,2456.3108Q-59.79094,2454.521,-55.614937,2452.7312L-11.822937,2384.778L-7.2926636,2383.2683L-8.802795,2378.738Q-2.7624283,2380.2476,-2.7624512,2369.6775L1.7677002,2368.1677L0.25769043,2363.6375L4.787842,2365.1472L7.8079834,2359.1072Q4.021469,2356.497,4.683403,2355.213Q5.2738266,2353.4573,9.318115,2351.557 Z"/>
</g>
<g style="fill:url(#gradDark); stroke-linejoin: miter">
<path d="M525.76184,642.1576L608.8157,691.98987Q652.195,712.2077,684.3193,743.3322Q688.0104,790.7596,690.3595,791.65466L685.8291,793.1646L604.28546,705.5805L599.75525,704.0705L598.2451,699.5402Q521.13837,640.6104,525.76184,642.1576 M90.8617,826.3863L110.49251,830.9165L107.47243,836.95667L112.00264,844.50714L118.04292,841.487L118.04292,847.5272L122.573135,849.0373L121.063065,853.56757L86.33143,830.9165L90.8617,826.3863 M84.82142,880.7487L125.59328,894.33936L99.92207,901.8897L78.781136,904.90985L80.291145,900.37964Q78.21021,891.2889,79.56455,887.4233Q80.719795,882.613,84.82142,880.7487 M1030.1251,1466.6554L1034.6552,1468.1656L1031.6351,1504.4073L1031.6354,1582.931L1034.6554,1595.0117L1034.6554,1625.2129Q1051.695,1772.6031,1052.7762,1788.3007L1070.8969,1924.2068L1089.0181,2023.8716L1085.9978,2023.8746Q1034.6553,1827.5609,1031.6354,1800.3812Q1023.6842,1739.8943,1021.06464,1723.3677L1018.0446,1678.0654L1016.5345,1579.911L1019.55475,1567.8306L1019.55475,1543.6693L1030.1251,1466.6554 M522.7416,264.64023L515.19055,265.81415Q458.92236,279.8461,459.31848,297.86176Q498.9253,291.45792,536.33203,338.6336Q175.36314,340.37762,142.20393,466.98962Q192.34355,370.61508,552.9429,355.2444L589.18463,412.62708Q387.0218,372.84326,238.84846,454.90906Q355.92554,391.82767,601.265,430.74792Q632.6223,494.4505,643.5472,548.5333Q561.8634,519.7954,491.03003,516.8219Q622.0451,554.4873,637.50684,587.7951Q412.3106,488.10263,364.18427,519.842Q515.82275,576.0797,634.4868,678.3993Q470.5031,582.2721,385.3252,562.12396Q402.29858,565.3519,378.13593,685.0853Q465.05597,750.0298,462.33893,868.6681L256.96936,820.34595Q221.09123,876.4763,222.23778,861.1178Q238.59682,879.54626,235.15724,880.0403L214.68736,874.7084L189.01613,836.95667Q206.98781,832.6876,211.9842,809.7008Q216.71016,810.7355,220.72765,829.4064Q253.08238,825.61255,246.39885,815.8157L50.08972,773.53375Q98.46796,707.4822,246.39876,782.59424Q183.58131,720.5649,119.392944,711.86487Q-20.84488,731.0853,-5.782898,772.02374L-72.2259,769.00366Q-81.21896,774.75085,-84.24166,799.0957Q-82.76854,813.8053,-70.71583,812.79553Q-81.37948,863.0381,-82.79633,888.2991L-61.170662,873.0493Q-52.585613,986.5936,-17.863281,944.17163Q-6.764595,932.3273,-11.19883,911.6227Q-24.298203,872.344,-46.554626,846.0171L-40.51435,815.8158Q-30.121101,791.4962,-32.964058,841.48694Q5.030075,795.8865,11.853363,811.8821Q49.661026,815.68506,81.801285,823.3661Q39.51927,806.7639,33.479065,856.58765Q-2.091629,839.8091,-6.640373,854.05225L41.029358,882.2589Q37.50586,885.2416,31.968933,882.2589Q55.374985,907.1748,33.479065,929.0709L179.95576,891.3192L50.089798,852.0574L57.640076,838.4668L161.83488,873.19836Q148.62651,873.33826,157.30476,880.7488L452.94287,905.2451Q504.581,996.28357,539.06287,992.70776L664.6881,920.0105Q749.83923,937.6559,751.20953,948.85095Q805.5857,1039.8186,726.77747,1146.0405Q569.43756,1290.7213,495.5603,1261.2861Q489.3166,1285.048,543.88257,1306.5883Q549.927,1279.347,561.324,1269.7957Q570.3554,1269.7129,574.08386,1303.5682Q607.51984,1290.1921,617.8761,1296.0177Q478.74457,1756.3099,385.32544,1990.6501L706.9702,1853.2334L741.7018,1912.1262Q408.77148,2084.1682,278.1104,2112.9656Q214.65962,2197.9863,137.67403,2322.8655L50.089966,2365.1475L255.45937,2035.952L362.67426,2004.2405L384.2254,1948.5358Q410.38147,1881.9253,492.54028,1626.7231L229.45256,1712.6296Q222.48949,1707.6797,225.25792,1688.3005Q212.49205,1585.0984,404.98682,1423.3976L454.78845,1308.0985L453.27832,1285.4474Q403.75983,1397.5872,323.37177,1423.3264Q172.9983,1472.139,-100.91713,1489.3068Q115.88106,1503.083,140.51582,1541.453Q155.7043,1559.4141,201.09691,1697.6964L204.11699,1712.7975Q182.86128,1716.224,180.60762,1734.8275Q215.49327,1830.2057,240.35866,1933.2673Q250.92915,1949.8782,219.21773,2032.9319L24.418755,2357.597Q23.326454,2315.987,12.113976,2340.8179Q8.9874115,2353.1277,10.073181,2379.4927L-58.63508,2498.0334L-26.923592,2499.5437L48.57991,2381.758L136.1639,2339.4763L288.976,2118.3804Q339.735,2123.436,746.2322,1922.6967L862.5075,2111.4553Q728.0991,2141.9941,643.3661,2221.7488Q512.1591,2378.2363,509.15112,2498.0334Q574.40985,2317.4514,616.00867,2283.1487Q691.88873,2184.9458,831.91656,2142.2742Q1083.3312,2136.357,1170.5618,2322.865Q1141.9645,2170.7761,888.17865,2109.9456L729.6213,1848.7034Q771.9033,1835.9569,792.70886,1835.1324Q845.3652,1833.8351,891.1988,1847.1932L1146.3385,2132.1243Q1191.9583,2201.6921,1258.1458,2452.7314Q1231.3004,2228.5698,1213.9996,2161.903L1143.3806,1927.2272Q1187.9648,2103.8396,1199.2532,2218.6704Q1079.1185,1804.5759,1075.9119,1722.1744Q1066.8328,1635.1686,1102.273,1387.461Q1121.486,1242.5194,1185.9954,1076.0009Q1193.0463,1066.2607,1218.8838,864.13794Q1207.2772,729.35693,1181.6947,671.3574Q978.04114,280.40112,522.7416,264.64023 M407.9761,300.8819L418.54666,302.39197L407.9761,303.90204L407.9761,300.8819 M136.16365,421.68753L127.10329,436.7882L128.61336,432.258L136.16365,421.68753 M377.77487,476.04996L465.3589,476.053L497.07043,477.56003L545.39246,486.62045L534.822,488.13052L525.7617,485.11035L404.95618,485.11038L335.4929,497.19095L315.86197,486.62045L377.77487,476.04996 M1220.394,880.7487L1221.1489,902.6447L1221.5264,913.5928L1221.9038,924.5407L1218.8838,924.5439L1220.394,880.7487 M1217.3738,947.1917L1217.7513,949.8343L1218.8838,957.76227L1215.8638,957.76526L1217.3738,947.1917 M667.70825,956.25214L679.40216,955.9679Q713.0174,955.2422,733.3414,978.23206Q753.0991,998.2207,747.7418,1045.3464Q738.089,1094.8403,707.20984,1131.693Q700.2872,1140.6953,682.809,1155.5813L643.5471,1176.7223L649.5874,1167.6619L694.9568,1127.7963Q705.1624,1114.2134,708.56476,1102.4779L723.5807,1021.18506L712.55286,991.62964Q710.2949,988.2366,701.19086,985.8568Q687.2626,984.7963,683.07,988.0196Q671.73505,995.17834,655.62775,1016.65485L628.4463,1013.6347Q623.8728,1014.7585,620.7096,1019.50726L659.6818,1066.756Q662.8694,1072.2875,666.0462,1081.0688Q674.645,1124.6714,654.0802,1138.262Q649.83875,1141.8134,646.56726,1143.5007L610.32574,1149.541L592.2048,1146.5209Q554.8585,1161.7747,558.172,1164.3359Q551.3156,1167.0205,547.4332,1167.6913Q535.7812,1168.4221,531.802,1167.6619L515.19135,1154.0713L528.7818,1134.4404L554.4531,1120.8496L559.6544,1086.7893Q565.18536,1075.635,568.27545,1074.0952L574.0839,1071.0175Q586.91943,1074.7926,596.73505,1087.628L607.3054,1092.1583L608.8154,1072.5277Q602.92316,1070.2708,601.6815,1046.7755Q602.58984,1029.6364,610.52985,1008.8053Q624.5932,968.6947,667.70825,956.25214 M145.22412,968.3327L146.73425,972.8629L145.22412,980.4133Q141.53287,978.73535,140.82442,977.0576L140.65656,976.21875L140.86182,975.37976L141.43964,974.5408Q142.20422,973.70184,143.71417,972.8629L145.22412,968.3327 M-162.83003,1031.7557L-158.85909,1031.1405Q-145.40208,1029.9878,-140.90608,1033.3218L-109.977615,1057.4269L-106.95747,1069.5077L-114.50789,1071.0176L-138.66896,1052.8967Q-150.37193,1054.9264,-157.96811,1049.7832Q-160.12666,1047.7161,-161.31996,1045.3463L-162.83003,1031.7557 M1208.3136,1031.7559L1209.0684,1037.041L1209.8235,1042.3262L1206.8032,1042.3293L1208.3136,1031.7559 M-54.10505,1049.8766L-52.594975,1060.4471L-63.16541,1080.078Q-65.30937,1083.1542,-68.41995,1085.2634Q-76.54268,1091.4956,-96.38697,1089.1384L-96.38697,1086.1183Q-77.58689,1084.1128,-68.44711,1075.132Q-64.14824,1071.0415,-61.65534,1066.4873L-54.10505,1049.8766 M-177.93068,1137.4606L-172.8309,1138.0654Q-154.94038,1142.3245,-151.52452,1147.1138Q-150.23442,1147.9011,-144.70924,1155.5813L-106.95747,1193.333L-84.306465,1219.0042L-55.615112,1241.6552L-66.185555,1246.1855L-143.19911,1217.4941L-156.78976,1215.9841L-167.36018,1211.454L-182.46095,1196.3531L-191.91283,1170.2345Q-193.40674,1158.9374,-191.52138,1148.031L-186.99117,1140.4807L-177.93068,1137.4606 M1187.1724,1197.8633L1187.9275,1203.1486Q1188.3048,1205.7913,1188.6824,1208.4338L1185.6624,1208.4369L1187.1724,1197.8633 M-190.01128,1279.4071L-159.80989,1285.4474Q-145.30045,1285.2554,-136.8514,1291.1243Q-127.54964,1297.6896,-125.0782,1311.1187L-162.82997,1333.7695Q-162.59314,1313.063,-167.12128,1306.5171Q-168.9037,1302.9304,-171.4023,1300.0599Q-174.94426,1296.2192,-177.93074,1294.5077L-190.01128,1279.4071 M1178.1118,1279.4071L1178.867,1286.2025Q1179.2444,1289.6002,1179.6221,1292.9979L1176.602,1293.001L1178.1118,1279.4071 M-123.568184,1481.7565L-115.262764,1484.0215L-106.957405,1486.2866Q-112.24266,1487.0419,-117.5279,1487.7968L-123.568184,1481.7565 M1178.112,1771.69L1178.4896,1775.0875L1179.6221,1785.2806L1176.602,1785.2836L1178.112,1771.69 M6.2979736,2357.597L4.787842,2362.1272L0.25769046,2369.6775L1.7677003,2365.147L6.2979736,2357.597 Z"/>
</g>
<g style="fill:url(#gradMetal); stroke-linejoin: miter">
<path d="M1008.98395,439.80826L1012.0041,444.33847L1015.0241,448.86868Q1012.0041,444.33847,1008.98395,439.80826 M1036.1652,463.96933L1055.796,485.11026L1075.4271,506.25125Q1055.796,485.11026,1036.1652,463.96933 M-35.984196,811.2856L-33.71912,812.0406L-31.453983,812.79565Q-35.22913,815.0607,-39.004337,817.3258Q-37.494328,814.3057,-35.984196,811.2856 M244.88876,823.3661L252.43912,824.8762L251.07822,826.7964L249.84775,828.1946L248.74777,829.07074L247.77841,829.42505L246.93954,829.25726L246.23111,828.5675L245.6531,827.35565L245.20578,825.6219L244.88876,823.3661 M1217.3738,826.38617L1218.1289,833.18146L1218.8838,839.97675Q1217.3738,839.97833,1215.8638,839.97986Q1216.6187,833.18304,1217.3738,826.38617 M193.54642,835.44666L195.8115,836.20166L198.07663,836.9568Q197.32169,840.7319,196.56656,844.5071L189.01613,839.9768Q191.28133,837.71173,193.54642,835.44666 M1205.2932,1071.0176L1206.0483,1076.3027L1206.8032,1081.5881Q1205.2932,1081.5895,1203.7832,1081.5911Q1204.5381,1076.3042,1205.2932,1071.0176 M-156.78975,1113.2994L-161.31996,1119.3397L-165.85017,1125.38Q-161.31996,1119.3397,-156.78975,1113.2994 M-177.93074,1200.8834L-173.40053,1206.9238L-168.87032,1212.9641Q-173.40053,1206.9238,-177.93074,1200.8834 M528.782,1228.0647L529.537,1230.3298L530.2919,1232.5948Q527.27185,1234.1051,524.2516,1235.615Q526.5167,1231.84,528.782,1228.0647 M-199.07172,1255.2458L-198.31668,1262.0413L-197.56165,1268.8365Q-199.07172,1268.838,-200.58176,1268.8396Q-199.82675,1262.0427,-199.07172,1255.2458 M1181.1321,1270.3467L1181.8872,1275.632L1182.6423,1280.9172Q1181.1321,1280.9187,1179.6221,1280.9203L1181.1321,1270.3467 M555.96313,1273.3668L566.53357,1277.897L569.5537,1320.1791Q567.2494,1335.3243,561.32605,1346.8506Q560.41077,1350.2976,550.4049,1362.1042Q546.08606,1366.51,540.8624,1370.0114L528.78174,1376.0515Q525.5969,1375.8807,513.4015,1371.2977Q505.7113,1368.9208,493.9818,1357.1602Q492.06665,1357.3976,486.00513,1341.647Q481.55225,1325.1265,481.69434,1320.7899Q480.1112,1305.5946,481.9696,1286.9575L484.98987,1286.9606Q482.2212,1305.1638,484.5984,1318.2224Q484.38855,1322.291,491.0581,1334.9161Q494.17627,1339.5161,498.58044,1342.8301L519.72144,1345.8502L533.31213,1335.2797L548.41284,1302.0582Q546.88403,1291.1334,548.7855,1289.0082Q550.42615,1285.2797,554.4531,1283.9373L551.43274,1277.897L555.96313,1273.3668 M-196.05157,1276.387L-191.52135,1282.4272L-186.99113,1288.4675Q-191.52135,1282.4272,-196.05157,1276.387 M1175.0918,1324.7094L1175.8469,1329.9946L1176.602,1335.2798Q1175.0918,1335.2812,1173.5818,1335.283L1175.0918,1324.7094 M-165.85011,1327.7292L-165.09511,1333.0145L-164.34004,1338.2998Q-165.85011,1338.3011,-167.36018,1338.3027L-165.85011,1327.7292 M468.37915,1354.9106L471.3993,1359.4409L474.41943,1363.9711Q471.3993,1359.4409,468.37915,1354.9106 M1172.0715,1354.9108L1172.8267,1361.706L1173.5818,1368.5013Q1172.0715,1368.5028,1170.5618,1368.5044Q1171.3167,1361.7075,1172.0715,1354.9108 M-183.97096,1391.1523L-183.2159,1396.4376L-182.46089,1401.7228Q-183.97096,1401.7242,-185.48103,1401.7258L-183.97096,1391.1523 M-183.97096,1406.253L-183.2159,1411.5382L-182.46089,1416.8236Q-183.97096,1416.8248,-185.48103,1416.8267L-183.97096,1406.253 M1169.0515,1406.2532L1169.8066,1413.0483L1170.5618,1419.8436Q1169.0515,1419.8452,1167.5415,1419.8468Q1168.2966,1413.0499,1169.0515,1406.2532 M1166.0312,1463.6357L1166.7864,1481.0016L1167.5415,1498.3674Q1166.0312,1498.3688,1164.5215,1498.3705L1166.0312,1463.6357 M-26.923649,1499.8773L-20.128359,1500.6323L-13.33301,1501.3872Q-20.128359,1502.1423,-26.923649,1502.8973Q-26.923649,1501.3872,-26.923649,1499.8773 M1166.0315,1563.3003L1166.7866,1577.6459L1167.5415,1591.9916Q1166.0315,1591.993,1164.5215,1591.9946Q1165.2764,1577.6475,1166.0315,1563.3003 M1169.0518,1638.804L1169.8066,1648.6194L1170.5618,1658.4349Q1169.0518,1658.4363,1167.5415,1658.4377Q1168.2966,1648.621,1169.0518,1638.804 M1172.0718,1696.1864L1172.8269,1702.9817L1173.5818,1709.777Q1172.0718,1709.7786,1170.5618,1709.78Q1171.3167,1702.9833,1172.0718,1696.1864 M1277.7769,2418.0L1278.5317,2423.2852L1279.2866,2428.5703Q1277.7769,2428.5723,1276.2666,2428.5732Q1277.0217,2423.2866,1277.7769,2418.0 M1280.797,2448.2012L1281.5519,2453.4863L1282.307,2458.7715Q1280.797,2458.773,1279.2866,2458.7744Q1280.0419,2453.4878,1280.797,2448.2012"/>
</g>
<g style="fill:url(#gradMetalLight); stroke-linejoin: miter">
<path d="M462.33875,285.7812L459.31848,290.31143L456.29834,294.84164Q459.31848,290.31143,462.33875,285.7812 M435.15747,294.84164L443.4629,295.59665L451.7682,296.35168Q443.4629,297.10672,435.15747,297.86176Q435.15747,296.35168,435.15747,294.84164 M157.3047,394.50626L148.24422,405.07675L139.18379,415.64725Q148.24422,405.07675,157.3047,394.50626 M102.942154,488.13055L96.90187,495.68094L90.86164,503.2313Q96.90187,495.68094,102.942154,488.13055 M1078.4471,506.2513L1082.9775,512.2916L1087.5078,518.3319Q1082.9775,512.2916,1078.4471,506.2513 M-66.185616,765.98346L-53.350044,766.7385L-40.51441,767.49347Q-53.350044,768.2486,-66.185616,769.00366Q-66.185616,767.49347,-66.185616,765.98346 M1223.4141,889.8091L1224.1692,904.1548L1224.9241,918.5004Q1223.4141,918.5019,1221.9038,918.50354L1223.4141,889.8091 M-190.0113,968.33276L-193.03146,972.86304L-196.0516,977.39325Q-193.03146,972.86304,-190.0113,968.33276 M-162.83003,1061.9572L-158.29982,1067.9974L-153.7696,1074.0377Q-158.29982,1067.9974,-162.83003,1061.9572 M-193.03146,1149.5411L-192.2764,1157.8464L-191.52138,1166.1519Q-193.03146,1166.1533,-194.54153,1166.1549Q-193.78647,1157.848,-193.03146,1149.5411 M510.66113,1215.9843L513.55066,1215.4436Q526.2466,1212.3115,530.2919,1226.5548L522.7417,1237.1251Q503.54688,1239.407,495.80652,1253.1432L482.83105,1284.1276Q479.9226,1292.6288,480.0569,1304.1722Q479.6151,1306.5826,481.96973,1323.1991L484.98987,1332.2595Q485.69824,1342.2893,489.0581,1349.6678Q490.83228,1355.9474,501.6006,1363.9711L527.27185,1374.5415Q524.08374,1378.0651,518.65894,1379.3513Q515.2189,1380.9454,501.6006,1379.0719L475.92944,1365.4812L471.2483,1360.4307Q461.29443,1346.0557,460.703,1341.7814Q455.42188,1327.5991,454.8053,1308.7528L454.78845,1299.0381Q460.82874,1279.4071,466.86902,1253.736L480.45972,1234.1051L484.98987,1232.5951L486.5,1228.0648L510.66113,1215.9843 M1184.1521,1249.2057L1184.9072,1254.491L1185.6624,1259.7762Q1184.1521,1259.7776,1182.6423,1259.7792Q1183.3972,1254.4924,1184.1521,1249.2057 M-183.97102,1288.4675L-179.44075,1294.5077L-174.91054,1300.548Q-179.44075,1294.5077,-183.97102,1288.4675 M1172.0715,1370.0114L1172.8267,1376.8066L1173.5818,1383.6019Q1172.0715,1383.6034,1170.5618,1383.605L1172.0715,1370.0114 M-165.85011,1457.5952L-159.80983,1465.1456L-153.76955,1472.696Q-159.80983,1465.1456,-165.85011,1457.5952 M1166.0312,1499.8774L1166.7864,1530.8339L1167.5415,1561.7903Q1166.0315,1561.7916,1164.5215,1561.7932Q1165.2764,1530.8353,1166.0312,1499.8774 M1169.0518,1626.7233L1169.8066,1632.0087L1170.5618,1637.2937Q1169.0518,1637.2953,1167.5415,1637.2969Q1168.2966,1632.0101,1169.0518,1626.7233 M1172.0718,1681.0857L1172.8269,1687.8811L1173.5818,1694.6764Q1172.0718,1694.6779,1170.5618,1694.6793Q1171.3167,1687.8824,1172.0718,1681.0857"/>
</g>
<g style="fill:url(#gradSpark); stroke-linejoin: miter">
<path d="M211.6672,820.346L204.11697,836.9568L195.05649,839.9769L198.07669,849.03723L208.64706,856.5876L220.72763,874.70844L228.2781,873.1984L216.19754,852.05743L229.78818,850.5474L246.39883,830.91644L244.88876,826.3862L217.70749,835.44666L216.19754,821.856L211.6672,820.346"/>
</g>
</g>
</svg>